<?xml version="1.0" encoding="UTF-8" standalone="no"?>
<!-- Creator: CorelDRAW -->

<svg
   xml:space="preserve"
   width="63.6998mm"
   height="89.1004mm"
   version="1.1"
   style="shape-rendering:geometricPrecision; text-rendering:geometricPrecision; image-rendering:optimizeQuality; fill-rule:evenodd; clip-rule:evenodd"
   viewBox="0 0 148.9 208.28"
   id="svg192"
   sodipodi:docname="card_back.svg"
   inkscape:version="1.2.2 (b0a84865, 2022-12-01)"
   xmlns:inkscape="http://www.inkscape.org/namespaces/inkscape"
   xmlns:sodipodi="http://sodipodi.sourceforge.net/DTD/sodipodi-0.dtd"
   xmlns="http://www.w3.org/2000/svg"
   xmlns:svg="http://www.w3.org/2000/svg"><sodipodi:namedview
   id="namedview194"
   pagecolor="#ffffff"
   bordercolor="#000000"
   borderopacity="0.25"
   inkscape:showpageshadow="2"
   inkscape:pageopacity="0.0"
   inkscape:pagecheckerboard="0"
   inkscape:deskcolor="#d1d1d1"
   inkscape:document-units="mm"
   showgrid="false"
   inkscape:zoom="0.70080117"
   inkscape:cx="119.86281"
   inkscape:cy="168.37871"
   inkscape:window-width="1534"
   inkscape:window-height="456"
   inkscape:window-x="0"
   inkscape:window-y="25"
   inkscape:window-maximized="0"
   inkscape:current-layer="svg192" />
 <defs
   id="defs181">
  <style
   type="text/css"
   id="style179">
   <![CDATA[
    .str0 {stroke:black;stroke-width:0.47;stroke-miterlimit:22.9256}
    .fil2 {fill:#FEFEFE}
    .fil1 {fill:#EB3000}
    .fil0 {fill:white}
   ]]>
  </style>
 </defs>
 <g
   id="Слой_x0020_1"
   inkscape:label="Слой 1">
  <metadata
   id="CorelCorpID_0Corel-Layer" />
  <path
   class="fil0 str0"
   d="M8.23 0.23l132.45 0c4.4,0 7.99,3.6 7.99,7.99l0 191.83c0,4.4 -3.6,7.99 -7.99,7.99l-132.45 0c-4.4,0 -7.99,-3.6 -7.99,-7.99l0 -191.83c0,-4.4 3.6,-7.99 7.99,-7.99z"
   id="path184" />
  <g
   id="_2736920599088">
   <path
   class="fil1"
   d="M16.12 9.08l116.67 0c3.87,0 7.04,3.17 7.04,7.04l0 176.04c0,3.87 -3.17,7.04 -7.04,7.04l-116.67 0c-3.87,0 -7.04,-3.17 -7.04,-7.04l0 -176.04c0,-3.87 3.17,-7.04 7.04,-7.04z"
   id="path186" />
   <path
   class="fil2"
   d="M16.88 9.08l1.54 0 0.76 1.07 0.76 -1.07 1.55 0 -1.53 2.16 2.39 3.36 2.39 -3.36 -1.53 -2.16 1.54 0 0.76 1.07 0.76 -1.07 1.54 0 -1.53 2.16 2.39 3.36 2.38 -3.36 -1.53 -2.16 1.55 0 0.76 1.07 0.76 -1.07 1.54 0 -1.53 2.16 2.39 3.36 2.38 -3.36 -1.53 -2.16 1.54 0 0.76 1.07 0.76 -1.07 1.55 0 -1.53 2.16 2.39 3.36 2.38 -3.36 -1.53 -2.16 1.54 0 0.76 1.07 0.76 -1.07 1.54 0 -1.53 2.16 2.39 3.36 2.38 -3.36 -1.53 -2.16 1.55 0 0.76 1.07 0.76 -1.07 1.55 0 -1.53 2.16 2.39 3.36 2.39 -3.36 -1.53 -2.16 1.54 0 0.76 1.07 0.76 -1.07 1.55 0 -1.53 2.16 2.39 3.36 2.38 -3.36 -1.53 -2.16 1.54 0 0.76 1.07 0.76 -1.07 1.55 0 -1.53 2.16 2.39 3.36 2.38 -3.36 -1.53 -2.16 1.55 0 0.76 1.07 0.76 -1.07 1.55 0 -1.53 2.16 2.39 3.36 2.38 -3.36 -1.53 -2.16 1.54 0 0.76 1.07 0.76 -1.07 1.55 0 -1.53 2.16 2.38 3.36 2.39 -3.36 -1.53 -2.16 1.55 0 0.76 1.07 0.76 -1.07 1.54 0 -1.53 2.16 2.38 3.36 2.39 -3.36 -1.54 -2.16 1.55 0 0.76 1.07 0.76 -1.07 1.55 0 -1.53 2.16 2.38 3.36 2.39 -3.36 -1.53 -2.16 1.55 0 0.76 1.07 0.76 -1.07 1.54 0 -1.53 2.16 2.38 3.36 2.39 -3.36 -1.54 -2.16 1.55 0 0.76 1.07 0.76 -1.07 1.54 0 -1.53 2.16 2.38 3.36 2.39 -3.36 -1.54 -2.16 1.55 0 0.76 1.07 0.76 -1.07 1.55 0 -1.53 2.16 2.38 3.36 2.39 -3.36 -1.54 -2.16 1.55 0 0.76 1.07 0.76 -1.07 1.54 0 -1.53 2.16 2.38 3.36 2.39 -3.36 -1.53 -2.16 1.55 0 0.76 1.07 0.76 -1.07 1.54 0 -1.53 2.16 2.38 3.36 2.39 -3.36 -1.53 -2.16 1.55 0 0.76 1.07 0.76 -1.07 1.54 0 -1.53 2.16 2.38 3.36 2.39 -3.36 -1.53 -2.16 1.55 0 0.76 1.07 0.73 -1.02c0.46,0.05 0.91,0.15 1.34,0.29l-1.29 1.82 2.39 3.36 2.13 -3.01c0.29,0.34 0.54,0.71 0.76,1.1l-2.12 3 2.39 3.37 0.63 -0.89 0 3.96 -0.63 -0.89 -2.39 3.37 2.39 3.36 0.63 -0.89 0 3.96 -0.63 -0.89 -2.39 3.37 2.39 3.36 0.63 -0.89 0 3.96 -0.63 -0.89 -2.39 3.37 2.39 3.37 0.63 -0.89 0 3.95 -0.63 -0.89 -2.39 3.36 2.39 3.36 0.63 -0.89 0 3.96 -0.63 -0.89 -2.39 3.36 2.39 3.37 0.63 -0.89 0 3.96 -0.63 -0.89 -2.39 3.37 2.39 3.36 0.63 -0.89 0 3.96 -0.63 -0.89 -2.39 3.36 2.39 3.37 0.63 -0.89 0 3.96 -0.63 -0.89 -2.39 3.37 2.39 3.37 0.63 -0.89 0 3.96 -0.63 -0.89 -2.39 3.37 2.39 3.36 0.63 -0.89 0 3.95 -0.63 -0.89 -2.39 3.36 2.39 3.37 0.63 -0.89 0 3.96 -0.63 -0.89 -2.39 3.36 2.39 3.37 0.63 -0.89 0 3.96 -0.63 -0.89 -2.39 3.36 2.39 3.36 0.63 -0.89 0 3.96 -0.63 -0.89 -2.39 3.36 2.39 3.37 0.63 -0.89 0 3.96 -0.63 -0.89 -2.39 3.37 2.39 3.36 0.63 -0.89 0 3.96 -0.63 -0.89 -2.39 3.36 2.39 3.36 0.63 -0.89 0 3.96 -0.63 -0.89 -2.39 3.37 2.39 3.36 0.63 -0.89 0 3.96 -0.63 -0.89 -2.39 3.36 2.39 3.37 0.63 -0.89 0 3.96 -0.63 -0.89 -2.39 3.36 2.39 3.36 0.63 -0.89 0 3.95 -0.63 -0.89 -2.39 3.37 2.39 3.37 0.63 -0.89 0 3.96 -0.63 -0.89 -2.39 3.37 1.7 2.4c-0.25,0.35 -0.54,0.68 -0.85,0.98l-1.63 -2.29 -2.39 3.36 0.54 0.76c-0.45,0.09 -0.92,0.14 -1.4,0.14l-1.32 0 0.64 -0.9 -2.39 -3.36 -2.38 3.36 0.64 0.9 -2.82 0 0.64 -0.9 -2.39 -3.36 -2.38 3.36 0.64 0.9 -2.82 0 0.64 -0.9 -2.39 -3.36 -2.38 3.36 0.64 0.9 -2.82 0 0.64 -0.9 -2.39 -3.36 -2.38 3.36 0.64 0.9 -2.82 0 0.64 -0.9 -2.39 -3.36 -2.38 3.36 0.64 0.9 -2.82 0 0.64 -0.9 -2.39 -3.36 -2.38 3.36 0.64 0.9 -2.82 0 0.64 -0.9 -2.39 -3.36 -2.38 3.36 0.64 0.9 -2.82 0 0.64 -0.9 -2.39 -3.36 -2.38 3.36 0.64 0.9 -2.82 0 0.64 -0.9 -2.39 -3.36 -2.38 3.36 0.64 0.9 -2.82 0 0.64 -0.9 -2.38 -3.36 -2.39 3.36 0.64 0.9 -2.83 0 0.64 -0.9 -2.38 -3.36 -2.39 3.36 0.64 0.9 -2.82 0 0.64 -0.9 -2.38 -3.36 -2.39 3.36 0.64 0.9 -2.82 0 0.64 -0.9 -2.39 -3.36 -2.39 3.36 0.64 0.9 -2.82 0 0.64 -0.9 -2.38 -3.36 -2.39 3.36 0.64 0.9 -2.82 0 0.64 -0.9 -2.38 -3.36 -2.39 3.36 0.64 0.9 -2.82 0 0.64 -0.9 -2.38 -3.36 -2.39 3.36 0.64 0.9 -2.82 0 0.64 -0.9 -2.38 -3.36 -2.39 3.36 0.64 0.9 -2.82 0 0.64 -0.9 -2.39 -3.36 -2.39 3.36 0.64 0.9 -2.82 0 0.64 -0.9 -2.39 -3.36 -2.39 3.36 0.42 0.6c-0.95,-0.29 -1.82,-0.78 -2.55,-1.42l-1.8 -2.54 -0.04 0.05c-0.38,-0.87 -0.6,-1.82 -0.6,-2.82l0 -0.29 0.63 0.89 2.39 -3.36 -2.39 -3.37 -0.63 0.89 0 -3.96 0.63 0.89 2.39 -3.36 -2.39 -3.37 -0.63 0.89 0 -3.96 0.63 0.89 2.39 -3.37 -2.39 -3.36 -0.63 0.89 0 -3.96 0.63 0.89 2.39 -3.37 -2.39 -3.36 -0.63 0.89 0 -3.96 0.63 0.89 2.39 -3.36 -2.39 -3.36 -0.63 0.89 0 -3.96 0.63 0.89 2.39 -3.37 -2.39 -3.36 -0.63 0.89 0 -3.96 0.63 0.89 2.39 -3.37 -2.39 -3.36 -0.63 0.89 0 -3.96 0.63 0.89 2.39 -3.37 -2.39 -3.36 -0.63 0.89 0 -3.96 0.63 0.89 2.39 -3.37 -2.39 -3.37 -0.63 0.89 0 -3.95 0.63 0.89 2.39 -3.36 -2.39 -3.37 -0.63 0.89 0 -3.96 0.63 0.89 2.39 -3.36 -2.39 -3.36 -0.63 0.89 0 -3.95 0.63 0.89 2.39 -3.37 -2.39 -3.36 -0.63 0.89 0 -3.96 0.63 0.89 2.39 -3.37 -2.39 -3.37 -0.63 0.89 0 -3.95 0.63 0.89 2.39 -3.36 -2.39 -3.37 -0.63 0.89 0 -3.96 0.63 0.89 2.39 -3.37 -2.39 -3.36 -0.63 0.89 0 -3.96 0.63 0.89 2.39 -3.36 -2.39 -3.37 -0.63 0.89 0 -3.96 0.63 0.89 2.39 -3.36 -2.39 -3.37 -0.63 0.89 0 -3.96 0.63 0.89 2.39 -3.36 -2.39 -3.36 -0.63 0.89 0 -3.96 0.63 0.89 2.39 -3.37 -2.39 -3.37 -0.63 0.89 0 -3.96 0.63 0.89 2.39 -3.36 -2.39 -3.37 -0.63 0.89 0 -1.55c0,-0.69 0.1,-1.36 0.29,-2l0.34 0.48 2.39 -3.36 -0.41 -0.58c0.33,-0.27 0.68,-0.5 1.04,-0.71l0.14 0.2 0.3 -0.42c0.61,-0.28 1.27,-0.48 1.96,-0.58l-1.48 2.09 2.39 3.36 2.39 -3.36 -1.53 -2.16zm59.15 188.14l-2.38 -3.37 2.38 -3.37 0 0.01 2.39 3.37 -2.39 3.36zm0 -8.91l-2.38 -3.37 2.38 -3.37 0 0.01 2.39 3.36 -2.39 3.37zm0 -8.91l-2.38 -3.36 2.38 -3.36 0 0.01 2.39 3.36 -2.39 3.36zm0 -8.91l-2.38 -3.37 2.38 -3.36 0 0.01 2.39 3.36 -2.39 3.37zm0 -8.91l-2.38 -3.36 2.38 -3.37 0 0.01 2.39 3.36 -2.39 3.36zm0 -8.91l-2.38 -3.36 2.38 -3.36 0 0.01 2.39 3.36 -2.39 3.36zm0 -8.91l-2.38 -3.36 2.38 -3.37 0 0.01 2.39 3.37 -2.39 3.36zm0 -8.91l-2.38 -3.37 2.38 -3.36 0 0.01 2.39 3.36 -2.39 3.37zm0 -8.91l-2.38 -3.36 2.38 -3.36 0 0.01 2.39 3.36 -2.39 3.36zm0 -8.9l-2.38 -3.37 2.38 -3.36 0 0.01 2.39 3.36 -2.39 3.37zm0 -8.91l-2.38 -3.37 2.38 -3.36 0 0.01 2.39 3.36 -2.39 3.36zm0 -8.9l-2.38 -3.36 2.38 -3.37 0 0.01 2.39 3.37 -2.39 3.36zm0 -8.91l-2.38 -3.37 2.38 -3.37 0 0 2.39 3.36 -2.39 3.36zm0 -8.91l-2.38 -3.37 2.38 -3.36 0 0.01 2.39 3.36 -2.39 3.36zm0 -8.91l-2.38 -3.36 2.38 -3.37 0 0.01 2.39 3.36 -2.39 3.36zm0 -8.91l-2.38 -3.37 2.38 -3.36 0 0.01 2.39 3.36 -2.39 3.36zm0 -8.91l-2.38 -3.36 2.38 -3.36 0 0 2.39 3.36 -2.39 3.36zm0 -8.9l-2.38 -3.37 2.38 -3.37 0 0 2.39 3.37 -2.39 3.36zm0 -8.91l-2.38 -3.36 2.38 -3.37 0 0.01 2.39 3.36 -2.39 3.36zm0 -8.91l-2.38 -3.36 2.38 -3.36 0 0.01 2.39 3.36 -2.39 3.36zm0 -8.91l-2.38 -3.37 2.38 -3.36 0 0 2.39 3.36 -2.39 3.36zm57.62 170.34l2.39 -3.37 2.39 3.37 -2.39 3.36 -2.39 -3.36zm-0.77 1.09l2.38 3.37 -2.38 3.37 -2.38 -3.37 2.38 -3.37zm-5.54 -1.09l2.38 -3.37 2.39 3.37 -2.39 3.36 -2.38 -3.36zm-0.77 1.09l2.39 3.37 -2.39 3.37 -2.39 -3.37 2.39 -3.37zm-5.54 -1.09l2.38 -3.37 2.39 3.37 -2.39 3.36 -2.38 -3.36zm-0.77 1.09l2.38 3.37 -2.38 3.37 -2.39 -3.37 2.39 -3.37zm-5.55 -1.09l2.38 -3.37 2.39 3.37 -2.39 3.36 -2.38 -3.36zm-0.77 1.09l2.38 3.37 -2.38 3.37 -2.39 -3.37 2.39 -3.37zm-5.54 -1.09l2.38 -3.37 2.39 3.37 -2.39 3.36 -2.38 -3.36zm-0.77 1.09l2.39 3.37 -2.39 3.37 -2.39 -3.37 2.39 -3.37zm-5.54 -1.09l2.38 -3.37 2.39 3.37 -2.39 3.36 -2.38 -3.36zm-0.77 1.09l2.38 3.37 -2.38 3.37 -2.39 -3.37 2.39 -3.37zm-5.55 -1.09l2.38 -3.37 2.39 3.37 -2.39 3.36 -2.38 -3.36zm-0.77 1.09l2.39 3.37 -2.39 3.37 -2.39 -3.37 2.39 -3.37zm-5.54 -1.09l2.38 -3.37 2.39 3.37 -2.39 3.36 -2.38 -3.36zm-0.77 1.09l2.38 3.37 -2.38 3.37 -2.39 -3.37 2.39 -3.37zm-5.54 -1.09l2.38 -3.37 2.39 3.37 -2.39 3.36 -2.38 -3.36zm-0.77 1.09l2.38 3.37 -2.38 3.37 -2.39 -3.37 2.39 -3.37zm-5.55 -1.09l2.38 -3.37 2.39 3.37 -2.39 3.36 -2.38 -3.36zm4.77 -169.25l-2.39 3.36 -2.38 -3.36 2.38 -3.37 2.39 3.37zm0.78 -1.09l-2.39 -3.37 2.39 -3.36 2.38 3.36 -2.38 3.37zm5.54 1.09l-2.39 3.36 -2.38 -3.36 2.38 -3.37 2.39 3.37zm0.77 -1.09l-2.39 -3.37 2.39 -3.36 2.38 3.36 -2.38 3.37zm5.54 1.09l-2.39 3.36 -2.38 -3.36 2.38 -3.37 2.39 3.37zm0.77 -1.09l-2.39 -3.37 2.39 -3.36 2.39 3.36 -2.39 3.37zm5.54 1.09l-2.39 3.36 -2.38 -3.36 2.38 -3.37 2.39 3.37zm0.77 -1.09l-2.39 -3.37 2.39 -3.36 2.38 3.36 -2.38 3.37zm5.54 1.09l-2.39 3.36 -2.38 -3.36 2.38 -3.37 2.39 3.37zm0.77 -1.09l-2.39 -3.37 2.39 -3.36 2.39 3.36 -2.39 3.37zm5.55 1.09l-2.39 3.36 -2.38 -3.36 2.38 -3.37 2.39 3.37zm0.77 -1.09l-2.39 -3.37 2.39 -3.37 2.38 3.37 -2.38 3.37zm5.54 1.09l-2.39 3.36 -2.38 -3.36 2.38 -3.37 2.39 3.37zm0.78 -1.09l-2.39 -3.37 2.39 -3.37 2.38 3.37 -2.38 3.37zm5.54 1.09l-2.39 3.36 -2.38 -3.36 2.38 -3.37 2.39 3.37zm0.77 -1.09l-2.39 -3.37 2.39 -3.37 2.39 3.37 -2.39 3.37zm5.54 1.09l-2.39 3.36 -2.38 -3.36 2.38 -3.37 2.39 3.37zm0.77 -1.09l-2.38 -3.37 2.38 -3.37 2.38 3.37 -2.38 3.37zm5.54 1.09l-2.39 3.36 -2.39 -3.36 2.39 -3.37 2.39 3.37zm-4.77 160.34l2.39 -3.37 2.39 3.37 -2.39 3.36 -2.39 -3.36zm-0.77 1.08l2.38 3.37 -2.38 3.37 -2.38 -3.37 2.38 -3.37zm-5.54 -1.08l2.38 -3.37 2.39 3.37 -2.39 3.36 -2.38 -3.36zm-0.77 1.08l2.39 3.37 -2.39 3.37 -2.39 -3.37 2.39 -3.37zm-5.54 -1.08l2.38 -3.37 2.39 3.37 -2.39 3.36 -2.38 -3.36zm-0.77 1.08l2.38 3.37 -2.38 3.37 -2.39 -3.37 2.39 -3.37zm-5.55 -1.08l2.38 -3.37 2.39 3.37 -2.39 3.36 -2.38 -3.36zm-0.77 1.08l2.38 3.37 -2.38 3.37 -2.39 -3.37 2.39 -3.37zm-5.54 -1.08l2.38 -3.37 2.39 3.37 -2.39 3.36 -2.38 -3.36zm-0.77 1.08l2.39 3.37 -2.39 3.37 -2.39 -3.37 2.39 -3.37zm-5.54 -1.08l2.38 -3.37 2.39 3.37 -2.39 3.36 -2.38 -3.36zm-0.77 1.08l2.38 3.37 -2.38 3.37 -2.39 -3.37 2.39 -3.37zm-5.55 -1.08l2.38 -3.37 2.39 3.37 -2.39 3.36 -2.38 -3.36zm-0.77 1.08l2.39 3.37 -2.39 3.37 -2.39 -3.37 2.39 -3.37zm-5.54 -1.08l2.38 -3.37 2.39 3.37 -2.39 3.36 -2.38 -3.36zm-0.77 1.08l2.38 3.37 -2.38 3.37 -2.39 -3.37 2.39 -3.37zm-5.54 -1.08l2.38 -3.37 2.39 3.37 -2.39 3.36 -2.38 -3.36zm-0.77 1.08l2.38 3.37 -2.38 3.37 -2.39 -3.37 2.39 -3.37zm-5.55 -1.08l2.38 -3.37 2.39 3.37 -2.39 3.36 -2.38 -3.36zm4.77 -151.43l-2.39 3.37 -2.38 -3.37 2.38 -3.37 2.39 3.37zm0.78 -1.09l-2.39 -3.36 2.39 -3.36 2.38 3.36 -2.38 3.36zm5.54 1.09l-2.39 3.37 -2.38 -3.37 2.38 -3.37 2.39 3.37zm0.77 -1.09l-2.39 -3.36 2.39 -3.36 2.38 3.36 -2.38 3.36zm5.54 1.09l-2.39 3.37 -2.38 -3.37 2.38 -3.37 2.39 3.37zm0.77 -1.09l-2.39 -3.36 2.39 -3.36 2.39 3.36 -2.39 3.36zm5.54 1.09l-2.39 3.37 -2.38 -3.37 2.38 -3.37 2.39 3.37zm0.77 -1.09l-2.39 -3.36 2.39 -3.36 2.38 3.36 -2.38 3.36zm5.54 1.09l-2.39 3.37 -2.38 -3.37 2.38 -3.37 2.39 3.37zm0.77 -1.09l-2.39 -3.36 2.39 -3.37 2.39 3.37 -2.39 3.36zm5.55 1.09l-2.39 3.37 -2.38 -3.37 2.38 -3.37 2.39 3.37zm0.77 -1.09l-2.39 -3.36 2.39 -3.37 2.38 3.37 -2.38 3.36zm5.54 1.09l-2.39 3.37 -2.38 -3.37 2.38 -3.37 2.39 3.37zm0.78 -1.09l-2.39 -3.36 2.39 -3.37 2.38 3.37 -2.38 3.36zm5.54 1.09l-2.39 3.37 -2.38 -3.37 2.38 -3.37 2.39 3.37zm0.77 -1.09l-2.39 -3.36 2.39 -3.37 2.39 3.37 -2.39 3.36zm5.54 1.09l-2.39 3.37 -2.38 -3.37 2.38 -3.37 2.39 3.37zm0.77 -1.09l-2.38 -3.36 2.38 -3.37 2.38 3.37 -2.38 3.36zm5.54 1.09l-2.39 3.37 -2.39 -3.37 2.39 -3.37 2.39 3.37zm-4.77 142.52l2.39 -3.36 2.39 3.36 -2.39 3.37 -2.39 -3.37zm-0.77 1.09l2.38 3.36 -2.38 3.36 -2.38 -3.36 2.38 -3.36zm-5.54 -1.09l2.38 -3.36 2.39 3.36 -2.39 3.37 -2.38 -3.37zm-0.77 1.09l2.39 3.36 -2.39 3.36 -2.39 -3.36 2.39 -3.36zm-5.54 -1.09l2.38 -3.36 2.39 3.36 -2.39 3.37 -2.38 -3.37zm-0.77 1.09l2.38 3.36 -2.38 3.36 -2.39 -3.36 2.39 -3.36zm-5.55 -1.09l2.38 -3.36 2.39 3.36 -2.39 3.37 -2.38 -3.37zm-0.77 1.09l2.38 3.36 -2.38 3.36 -2.39 -3.36 2.39 -3.36zm-5.54 -1.09l2.38 -3.36 2.39 3.36 -2.39 3.37 -2.38 -3.37zm-0.77 1.09l2.39 3.36 -2.39 3.36 -2.39 -3.36 2.39 -3.36zm-5.54 -1.09l2.38 -3.36 2.39 3.36 -2.39 3.37 -2.38 -3.37zm-0.77 1.09l2.38 3.36 -2.38 3.36 -2.39 -3.36 2.39 -3.36zm-5.55 -1.09l2.38 -3.36 2.39 3.36 -2.39 3.37 -2.38 -3.37zm-0.77 1.09l2.39 3.36 -2.39 3.36 -2.39 -3.36 2.39 -3.36zm-5.54 -1.09l2.38 -3.36 2.39 3.36 -2.39 3.37 -2.38 -3.37zm-0.77 1.09l2.38 3.36 -2.38 3.36 -2.39 -3.36 2.39 -3.36zm-5.54 -1.09l2.38 -3.36 2.39 3.36 -2.39 3.37 -2.38 -3.37zm-0.77 1.09l2.38 3.36 -2.38 3.36 -2.39 -3.36 2.39 -3.36zm-5.55 -1.09l2.38 -3.36 2.39 3.36 -2.39 3.37 -2.38 -3.37zm4.77 -133.62l-2.39 3.36 -2.38 -3.36 2.38 -3.36 2.39 3.36zm0.78 -1.09l-2.39 -3.36 2.39 -3.37 2.38 3.37 -2.38 3.36zm5.54 1.09l-2.39 3.36 -2.38 -3.36 2.38 -3.36 2.39 3.36zm0.77 -1.09l-2.39 -3.36 2.39 -3.37 2.38 3.37 -2.38 3.36zm5.54 1.09l-2.39 3.36 -2.38 -3.36 2.38 -3.36 2.39 3.36zm0.77 -1.09l-2.39 -3.36 2.39 -3.37 2.39 3.37 -2.39 3.36zm5.54 1.09l-2.39 3.36 -2.38 -3.36 2.38 -3.36 2.39 3.36zm0.77 -1.09l-2.39 -3.36 2.39 -3.37 2.38 3.37 -2.38 3.36zm5.54 1.09l-2.39 3.36 -2.38 -3.36 2.38 -3.36 2.39 3.36zm0.77 -1.09l-2.39 -3.36 2.39 -3.37 2.39 3.37 -2.39 3.36zm5.55 1.09l-2.39 3.36 -2.38 -3.36 2.38 -3.36 2.39 3.36zm0.77 -1.09l-2.39 -3.36 2.39 -3.37 2.38 3.37 -2.38 3.36zm5.54 1.09l-2.39 3.36 -2.38 -3.36 2.38 -3.36 2.39 3.36zm0.78 -1.09l-2.39 -3.36 2.39 -3.37 2.38 3.37 -2.38 3.36zm5.54 1.09l-2.39 3.36 -2.38 -3.36 2.38 -3.36 2.39 3.36zm0.77 -1.09l-2.39 -3.36 2.39 -3.37 2.39 3.37 -2.39 3.36zm5.54 1.09l-2.39 3.36 -2.38 -3.36 2.38 -3.36 2.39 3.36zm0.77 -1.09l-2.38 -3.36 2.38 -3.37 2.38 3.37 -2.38 3.36zm5.54 1.09l-2.39 3.36 -2.39 -3.36 2.39 -3.36 2.39 3.36zm-4.77 124.71l2.39 -3.36 2.39 3.36 -2.39 3.37 -2.39 -3.37zm-0.77 1.09l2.38 3.36 -2.38 3.37 -2.38 -3.37 2.38 -3.36zm-5.54 -1.09l2.38 -3.36 2.39 3.36 -2.39 3.37 -2.38 -3.37zm-0.77 1.09l2.39 3.36 -2.39 3.37 -2.39 -3.37 2.39 -3.36zm-5.54 -1.09l2.38 -3.36 2.39 3.36 -2.39 3.37 -2.38 -3.37zm-0.77 1.09l2.38 3.36 -2.38 3.37 -2.39 -3.37 2.39 -3.36zm-5.55 -1.09l2.38 -3.36 2.39 3.36 -2.39 3.37 -2.38 -3.37zm-0.77 1.09l2.38 3.36 -2.38 3.37 -2.39 -3.37 2.39 -3.36zm-5.54 -1.09l2.38 -3.36 2.39 3.36 -2.39 3.37 -2.38 -3.37zm-0.77 1.09l2.39 3.36 -2.39 3.37 -2.39 -3.37 2.39 -3.36zm-5.54 -1.09l2.38 -3.36 2.39 3.36 -2.39 3.37 -2.38 -3.37zm-0.77 1.09l2.38 3.36 -2.38 3.37 -2.39 -3.37 2.39 -3.36zm-5.55 -1.09l2.38 -3.36 2.39 3.36 -2.39 3.37 -2.38 -3.37zm-0.77 1.09l2.39 3.36 -2.39 3.37 -2.39 -3.37 2.39 -3.36zm-5.54 -1.09l2.38 -3.36 2.39 3.36 -2.39 3.37 -2.38 -3.37zm-0.77 1.09l2.38 3.36 -2.38 3.37 -2.39 -3.37 2.39 -3.36zm-5.54 -1.09l2.38 -3.36 2.39 3.36 -2.39 3.37 -2.38 -3.37zm-0.77 1.09l2.38 3.36 -2.38 3.37 -2.39 -3.37 2.39 -3.36zm-0.78 -1.09l-2.39 3.37 -2.38 -3.37 2.38 -3.36 2.39 3.36zm0 -8.9l-2.39 3.36 -2.38 -3.36 2.38 -3.36 2.39 3.36zm0 -8.91l-2.39 3.37 -2.38 -3.37 2.38 -3.36 2.39 3.36zm0 -8.91l-2.39 3.37 -2.38 -3.37 2.38 -3.36 2.39 3.36zm0 -8.91l-2.39 3.37 -2.38 -3.37 2.38 -3.36 2.39 3.36zm0 -8.9l-2.39 3.37 -2.38 -3.37 2.38 -3.37 2.39 3.37zm0 -8.9l-2.39 3.36 -2.38 -3.36 2.38 -3.37 2.39 3.37zm0 -8.91l-2.39 3.36 -2.38 -3.36 2.38 -3.36 2.39 3.36zm0 -8.91l-2.39 3.37 -2.38 -3.37 2.38 -3.36 2.39 3.36zm0 -8.91l-2.39 3.37 -2.38 -3.37 2.38 -3.37 2.39 3.37zm0 -8.9l-2.39 3.36 -2.38 -3.36 2.38 -3.37 2.39 3.37zm0 -8.91l-2.39 3.37 -2.38 -3.37 2.38 -3.36 2.39 3.36zm0 -8.9l-2.39 3.36 -2.38 -3.36 2.38 -3.37 2.39 3.37zm0 -8.9l-2.39 3.36 -2.38 -3.36 2.38 -3.37 2.39 3.37zm0.78 -1.09l-2.39 -3.37 2.39 -3.37 2.38 3.37 -2.38 3.37zm5.54 1.09l-2.39 3.36 -2.38 -3.36 2.38 -3.37 2.39 3.37zm0.77 -1.09l-2.39 -3.37 2.39 -3.37 2.38 3.37 -2.38 3.37zm5.54 1.09l-2.39 3.36 -2.38 -3.36 2.38 -3.37 2.39 3.37zm0.77 -1.09l-2.39 -3.37 2.39 -3.37 2.39 3.37 -2.39 3.37zm5.54 1.09l-2.39 3.36 -2.38 -3.36 2.38 -3.37 2.39 3.37zm0.77 -1.09l-2.39 -3.37 2.39 -3.37 2.38 3.37 -2.38 3.37zm5.54 1.09l-2.39 3.36 -2.38 -3.36 2.38 -3.37 2.39 3.37zm0.77 -1.09l-2.39 -3.37 2.39 -3.37 2.39 3.37 -2.39 3.37zm5.55 1.09l-2.39 3.36 -2.38 -3.36 2.38 -3.37 2.39 3.37zm0.77 -1.09l-2.39 -3.37 2.39 -3.37 2.38 3.37 -2.38 3.37zm5.54 1.09l-2.39 3.36 -2.38 -3.36 2.38 -3.37 2.39 3.37zm0.78 -1.09l-2.39 -3.37 2.39 -3.37 2.38 3.37 -2.38 3.37zm5.54 1.09l-2.39 3.36 -2.38 -3.36 2.38 -3.37 2.39 3.37zm0.77 -1.09l-2.39 -3.37 2.39 -3.37 2.39 3.37 -2.39 3.37zm5.54 1.09l-2.39 3.36 -2.38 -3.36 2.38 -3.37 2.39 3.37zm0.77 -1.09l-2.38 -3.37 2.38 -3.37 2.38 3.37 -2.38 3.37zm5.54 1.09l-2.39 3.36 -2.39 -3.36 2.39 -3.37 2.39 3.37zm-4.77 106.89l2.39 -3.36 2.39 3.36 -2.39 3.36 -2.39 -3.36zm-0.77 1.09l2.38 3.37 -2.38 3.36 -2.38 -3.36 2.38 -3.37zm-5.54 -1.09l2.38 -3.36 2.39 3.36 -2.39 3.36 -2.38 -3.36zm-0.77 1.09l2.39 3.37 -2.39 3.36 -2.39 -3.36 2.39 -3.37zm-5.54 -1.09l2.38 -3.36 2.39 3.36 -2.39 3.36 -2.38 -3.36zm-0.77 1.09l2.38 3.37 -2.38 3.36 -2.39 -3.36 2.39 -3.37zm-5.55 -1.09l2.38 -3.36 2.39 3.36 -2.39 3.36 -2.38 -3.36zm-0.77 1.09l2.38 3.37 -2.38 3.36 -2.39 -3.36 2.39 -3.37zm-5.54 -1.09l2.38 -3.36 2.39 3.36 -2.39 3.36 -2.38 -3.36zm-0.77 1.09l2.39 3.37 -2.39 3.36 -2.39 -3.36 2.39 -3.37zm-5.54 -1.09l2.38 -3.36 2.39 3.36 -2.39 3.36 -2.38 -3.36zm-0.77 1.09l2.38 3.37 -2.38 3.36 -2.39 -3.36 2.39 -3.37zm-5.55 -1.09l2.38 -3.36 2.39 3.36 -2.39 3.36 -2.38 -3.36zm-0.77 1.09l2.39 3.37 -2.39 3.36 -2.39 -3.36 2.39 -3.37zm-5.54 -1.09l2.38 -3.36 2.39 3.36 -2.39 3.36 -2.38 -3.36zm-0.77 1.09l2.38 3.37 -2.38 3.36 -2.39 -3.36 2.39 -3.37zm-5.54 -1.09l2.38 -3.36 2.39 3.36 -2.39 3.36 -2.38 -3.36zm1.61 4.46l-2.38 3.36 -2.39 -3.36 2.39 -3.37 2.38 3.37zm0 -8.91l-2.38 3.36 -2.39 -3.36 2.39 -3.36 2.38 3.36zm0 -8.91l-2.38 3.36 -2.39 -3.36 2.39 -3.37 2.38 3.37zm0 -8.91l-2.38 3.37 -2.39 -3.37 2.39 -3.36 2.38 3.36zm0 -8.9l-2.38 3.36 -2.39 -3.36 2.39 -3.36 2.38 3.36zm0 -8.91l-2.38 3.37 -2.39 -3.37 2.39 -3.36 2.38 3.36zm0 -8.91l-2.38 3.37 -2.39 -3.37 2.39 -3.36 2.38 3.36zm0 -8.9l-2.38 3.36 -2.39 -3.36 2.39 -3.37 2.38 3.37zm0 -8.91l-2.38 3.37 -2.39 -3.37 2.39 -3.37 2.38 3.37zm0 -8.91l-2.38 3.37 -2.39 -3.37 2.39 -3.36 2.38 3.36zm0 -8.91l-2.38 3.36 -2.39 -3.36 2.39 -3.37 2.38 3.37zm0 -8.91l-2.38 3.37 -2.39 -3.37 2.39 -3.36 2.38 3.36zm-2.38 -5.54l-2.39 -3.36 2.39 -3.36 2.38 3.36 -2.38 3.36zm5.54 1.09l-2.39 3.36 -2.38 -3.36 2.38 -3.37 2.39 3.37zm0.77 -1.09l-2.39 -3.36 2.39 -3.36 2.38 3.36 -2.38 3.36zm5.54 1.09l-2.39 3.36 -2.38 -3.36 2.38 -3.37 2.39 3.37zm0.77 -1.09l-2.39 -3.36 2.39 -3.36 2.39 3.36 -2.39 3.36zm5.54 1.09l-2.39 3.36 -2.38 -3.36 2.38 -3.37 2.39 3.37zm0.77 -1.09l-2.39 -3.36 2.39 -3.36 2.38 3.36 -2.38 3.36zm5.54 1.09l-2.39 3.36 -2.38 -3.36 2.38 -3.37 2.39 3.37zm0.77 -1.09l-2.39 -3.36 2.39 -3.36 2.39 3.36 -2.39 3.36zm5.55 1.09l-2.39 3.36 -2.38 -3.36 2.38 -3.37 2.39 3.37zm0.77 -1.09l-2.39 -3.36 2.39 -3.36 2.38 3.36 -2.38 3.36zm5.54 1.09l-2.39 3.36 -2.38 -3.36 2.38 -3.37 2.39 3.37zm0.78 -1.09l-2.39 -3.36 2.39 -3.36 2.38 3.36 -2.38 3.36zm5.54 1.09l-2.39 3.36 -2.38 -3.36 2.38 -3.37 2.39 3.37zm0.77 -1.09l-2.39 -3.36 2.39 -3.36 2.39 3.36 -2.39 3.36zm5.54 1.09l-2.39 3.36 -2.38 -3.36 2.38 -3.37 2.39 3.37zm0.77 -1.09l-2.38 -3.36 2.38 -3.36 2.38 3.36 -2.38 3.36zm5.54 1.09l-2.39 3.36 -2.39 -3.36 2.39 -3.37 2.39 3.37zm-4.77 89.08l2.39 -3.36 2.39 3.36 -2.39 3.37 -2.39 -3.37zm-0.77 1.09l2.38 3.36 -2.38 3.36 -2.38 -3.36 2.38 -3.36zm-5.54 -1.09l2.38 -3.36 2.39 3.36 -2.39 3.37 -2.38 -3.37zm-0.77 1.09l2.39 3.36 -2.39 3.36 -2.39 -3.36 2.39 -3.36zm-5.54 -1.09l2.38 -3.36 2.39 3.36 -2.39 3.37 -2.38 -3.37zm-0.77 1.09l2.38 3.36 -2.38 3.36 -2.39 -3.36 2.39 -3.36zm-5.55 -1.09l2.38 -3.36 2.39 3.36 -2.39 3.37 -2.38 -3.37zm-0.77 1.09l2.38 3.36 -2.38 3.36 -2.39 -3.36 2.39 -3.36zm-5.54 -1.09l2.38 -3.36 2.39 3.36 -2.39 3.37 -2.38 -3.37zm-0.77 1.09l2.39 3.36 -2.39 3.36 -2.39 -3.36 2.39 -3.36zm-5.54 -1.09l2.38 -3.36 2.39 3.36 -2.39 3.37 -2.38 -3.37zm-0.77 1.09l2.38 3.36 -2.38 3.36 -2.39 -3.36 2.39 -3.36zm-5.55 -1.09l2.38 -3.36 2.39 3.36 -2.39 3.37 -2.38 -3.37zm-0.77 1.09l2.39 3.36 -2.39 3.36 -2.39 -3.36 2.39 -3.36zm-5.54 -1.09l2.38 -3.36 2.39 3.36 -2.39 3.37 -2.38 -3.37zm-0.77 1.09l2.38 3.36 -2.38 3.36 -2.39 -3.36 2.39 -3.36zm-0.77 -1.09l-2.39 3.37 -2.38 -3.37 2.38 -3.36 2.39 3.36zm0 -8.91l-2.39 3.37 -2.38 -3.37 2.38 -3.36 2.39 3.36zm0 -8.91l-2.39 3.37 -2.38 -3.37 2.38 -3.36 2.39 3.36zm0 -8.9l-2.39 3.37 -2.38 -3.37 2.38 -3.37 2.39 3.37zm0 -8.9l-2.39 3.36 -2.38 -3.36 2.38 -3.37 2.39 3.37zm0 -8.91l-2.39 3.36 -2.38 -3.36 2.38 -3.36 2.39 3.36zm0 -8.91l-2.39 3.37 -2.38 -3.37 2.38 -3.36 2.39 3.36zm0 -8.91l-2.39 3.37 -2.38 -3.37 2.38 -3.37 2.39 3.37zm0 -8.9l-2.39 3.36 -2.38 -3.36 2.38 -3.37 2.39 3.37zm0 -8.91l-2.39 3.37 -2.38 -3.37 2.38 -3.36 2.39 3.36zm0.77 -1.08l-2.39 -3.37 2.39 -3.36 2.38 3.36 -2.38 3.37zm5.54 1.08l-2.39 3.37 -2.38 -3.37 2.38 -3.36 2.39 3.36zm0.77 -1.08l-2.39 -3.37 2.39 -3.36 2.39 3.36 -2.39 3.37zm5.54 1.08l-2.39 3.37 -2.38 -3.37 2.38 -3.36 2.39 3.36zm0.77 -1.08l-2.39 -3.37 2.39 -3.36 2.38 3.36 -2.38 3.37zm5.54 1.08l-2.39 3.37 -2.38 -3.37 2.38 -3.36 2.39 3.36zm0.77 -1.08l-2.39 -3.37 2.39 -3.36 2.39 3.36 -2.39 3.37zm5.55 1.08l-2.39 3.37 -2.38 -3.37 2.38 -3.36 2.39 3.36zm0.77 -1.08l-2.39 -3.37 2.39 -3.36 2.38 3.36 -2.38 3.37zm5.54 1.08l-2.39 3.37 -2.38 -3.37 2.38 -3.36 2.39 3.36zm0.78 -1.08l-2.39 -3.37 2.39 -3.36 2.38 3.36 -2.38 3.37zm5.54 1.08l-2.39 3.37 -2.38 -3.37 2.38 -3.36 2.39 3.36zm0.77 -1.08l-2.39 -3.37 2.39 -3.36 2.39 3.36 -2.39 3.37zm5.54 1.08l-2.39 3.37 -2.38 -3.37 2.38 -3.36 2.39 3.36zm0.77 -1.08l-2.38 -3.37 2.38 -3.36 2.38 3.36 -2.38 3.37zm5.54 1.08l-2.39 3.37 -2.39 -3.37 2.39 -3.36 2.39 3.36zm-4.77 71.26l2.39 -3.36 2.39 3.36 -2.39 3.37 -2.39 -3.37zm-0.77 1.09l2.38 3.37 -2.38 3.36 -2.38 -3.36 2.38 -3.37zm-5.54 -1.09l2.38 -3.36 2.39 3.36 -2.39 3.37 -2.38 -3.37zm-0.77 1.09l2.39 3.37 -2.39 3.36 -2.39 -3.36 2.39 -3.37zm-5.54 -1.09l2.38 -3.36 2.39 3.36 -2.39 3.37 -2.38 -3.37zm-0.77 1.09l2.38 3.37 -2.38 3.36 -2.39 -3.36 2.39 -3.37zm-5.55 -1.09l2.38 -3.36 2.39 3.36 -2.39 3.37 -2.38 -3.37zm-0.77 1.09l2.38 3.37 -2.38 3.36 -2.39 -3.36 2.39 -3.37zm-5.54 -1.09l2.38 -3.36 2.39 3.36 -2.39 3.37 -2.38 -3.37zm-0.77 1.09l2.39 3.37 -2.39 3.36 -2.39 -3.36 2.39 -3.37zm-5.54 -1.09l2.38 -3.36 2.39 3.36 -2.39 3.37 -2.38 -3.37zm-0.77 1.09l2.38 3.37 -2.38 3.36 -2.39 -3.36 2.39 -3.37zm-5.55 -1.09l2.38 -3.36 2.39 3.36 -2.39 3.37 -2.38 -3.37zm-0.77 1.09l2.39 3.37 -2.39 3.36 -2.39 -3.36 2.39 -3.37zm-5.54 -1.09l2.38 -3.36 2.39 3.36 -2.39 3.37 -2.38 -3.37zm1.61 4.46l-2.38 3.36 -2.39 -3.36 2.39 -3.37 2.38 3.37zm0 -8.91l-2.38 3.37 -2.39 -3.37 2.39 -3.36 2.38 3.36zm0 -8.9l-2.38 3.36 -2.39 -3.36 2.39 -3.36 2.38 3.36zm0 -8.91l-2.38 3.37 -2.39 -3.37 2.39 -3.36 2.38 3.36zm0 -8.91l-2.38 3.37 -2.39 -3.37 2.39 -3.36 2.38 3.36zm0 -8.9l-2.38 3.36 -2.39 -3.36 2.39 -3.37 2.38 3.37zm0 -8.91l-2.38 3.37 -2.39 -3.37 2.39 -3.37 2.38 3.37zm0 -8.91l-2.38 3.37 -2.39 -3.37 2.39 -3.36 2.38 3.36zm-2.38 -5.54l-2.39 -3.36 2.39 -3.37 2.38 3.37 -2.38 3.36zm5.54 1.09l-2.39 3.36 -2.38 -3.36 2.38 -3.37 2.39 3.37zm0.77 -1.09l-2.39 -3.36 2.39 -3.37 2.39 3.37 -2.39 3.36zm5.54 1.09l-2.39 3.36 -2.38 -3.36 2.38 -3.37 2.39 3.37zm0.77 -1.09l-2.39 -3.36 2.39 -3.37 2.38 3.37 -2.38 3.36zm5.54 1.09l-2.39 3.36 -2.38 -3.36 2.38 -3.37 2.39 3.37zm0.77 -1.09l-2.39 -3.36 2.39 -3.37 2.39 3.37 -2.39 3.36zm5.55 1.09l-2.39 3.36 -2.38 -3.36 2.38 -3.37 2.39 3.37zm0.77 -1.09l-2.39 -3.36 2.39 -3.37 2.38 3.37 -2.38 3.36zm5.54 1.09l-2.39 3.36 -2.38 -3.36 2.38 -3.37 2.39 3.37zm0.78 -1.09l-2.39 -3.36 2.39 -3.37 2.38 3.37 -2.38 3.36zm5.54 1.09l-2.39 3.36 -2.38 -3.36 2.38 -3.37 2.39 3.37zm0.77 -1.09l-2.39 -3.36 2.39 -3.37 2.39 3.37 -2.39 3.36zm5.54 1.09l-2.39 3.36 -2.38 -3.36 2.38 -3.37 2.39 3.37zm0.77 -1.09l-2.38 -3.36 2.38 -3.37 2.38 3.37 -2.38 3.36zm5.54 1.09l-2.39 3.36 -2.39 -3.36 2.39 -3.37 2.39 3.37zm-4.77 53.44l2.39 -3.36 2.39 3.36 -2.39 3.37 -2.39 -3.37zm-0.77 1.09l2.38 3.36 -2.38 3.37 -2.38 -3.37 2.38 -3.36zm-5.54 -1.09l2.38 -3.36 2.39 3.36 -2.39 3.37 -2.38 -3.37zm-0.77 1.09l2.39 3.36 -2.39 3.37 -2.39 -3.37 2.39 -3.36zm-5.54 -1.09l2.38 -3.36 2.39 3.36 -2.39 3.37 -2.38 -3.37zm-0.77 1.09l2.38 3.36 -2.38 3.37 -2.39 -3.37 2.39 -3.36zm-5.55 -1.09l2.38 -3.36 2.39 3.36 -2.39 3.37 -2.38 -3.37zm-0.77 1.09l2.38 3.36 -2.38 3.37 -2.39 -3.37 2.39 -3.36zm-5.54 -1.09l2.38 -3.36 2.39 3.36 -2.39 3.37 -2.38 -3.37zm-0.77 1.09l2.39 3.36 -2.39 3.37 -2.39 -3.37 2.39 -3.36zm-5.54 -1.09l2.38 -3.36 2.39 3.36 -2.39 3.37 -2.38 -3.37zm-0.77 1.09l2.38 3.36 -2.38 3.37 -2.39 -3.37 2.39 -3.36zm-5.55 -1.09l2.38 -3.36 2.39 3.36 -2.39 3.37 -2.38 -3.37zm-0.77 1.09l2.39 3.36 -2.39 3.37 -2.39 -3.37 2.39 -3.36zm-0.77 -1.09l-2.39 3.37 -2.38 -3.37 2.38 -3.36 2.39 3.36zm0 -8.9l-2.39 3.37 -2.38 -3.37 2.38 -3.37 2.39 3.37zm0 -8.9l-2.39 3.36 -2.38 -3.36 2.38 -3.37 2.39 3.37zm0 -8.91l-2.39 3.36 -2.38 -3.36 2.38 -3.36 2.39 3.36zm0 -8.91l-2.39 3.37 -2.38 -3.37 2.38 -3.36 2.39 3.36zm0 -8.91l-2.39 3.37 -2.38 -3.37 2.38 -3.37 2.39 3.37zm0.77 -1.09l-2.39 -3.37 2.39 -3.36 2.39 3.36 -2.39 3.37zm5.54 1.09l-2.39 3.37 -2.38 -3.37 2.38 -3.37 2.39 3.37zm0.77 -1.09l-2.39 -3.37 2.39 -3.36 2.38 3.36 -2.38 3.37zm5.54 1.09l-2.39 3.37 -2.38 -3.37 2.38 -3.37 2.39 3.37zm0.77 -1.09l-2.39 -3.37 2.39 -3.36 2.39 3.36 -2.39 3.37zm5.55 1.09l-2.39 3.37 -2.38 -3.37 2.38 -3.37 2.39 3.37zm0.77 -1.09l-2.39 -3.37 2.39 -3.36 2.38 3.36 -2.38 3.37zm5.54 1.09l-2.39 3.37 -2.38 -3.37 2.38 -3.37 2.39 3.37zm0.78 -1.09l-2.39 -3.37 2.39 -3.36 2.38 3.36 -2.38 3.37zm5.54 1.09l-2.39 3.37 -2.38 -3.37 2.38 -3.37 2.39 3.37zm0.77 -1.09l-2.39 -3.37 2.39 -3.36 2.39 3.36 -2.39 3.37zm5.54 1.09l-2.39 3.37 -2.38 -3.37 2.38 -3.37 2.39 3.37zm0.77 -1.09l-2.38 -3.37 2.38 -3.36 2.38 3.36 -2.38 3.37zm5.54 1.09l-2.39 3.37 -2.39 -3.37 2.39 -3.37 2.39 3.37zm-4.77 35.63l2.39 -3.37 2.39 3.37 -2.39 3.37 -2.39 -3.37zm-0.77 1.09l2.38 3.36 -2.38 3.36 -2.38 -3.36 2.38 -3.36zm-5.54 -1.09l2.38 -3.37 2.39 3.37 -2.39 3.37 -2.38 -3.37zm-0.77 1.09l2.39 3.36 -2.39 3.36 -2.39 -3.36 2.39 -3.36zm-5.54 -1.09l2.38 -3.37 2.39 3.37 -2.39 3.37 -2.38 -3.37zm-0.77 1.09l2.38 3.36 -2.38 3.36 -2.39 -3.36 2.39 -3.36zm-5.55 -1.09l2.38 -3.37 2.39 3.37 -2.39 3.37 -2.38 -3.37zm-0.77 1.09l2.38 3.36 -2.38 3.36 -2.39 -3.36 2.39 -3.36zm-5.54 -1.09l2.38 -3.37 2.39 3.37 -2.39 3.37 -2.38 -3.37zm-0.77 1.09l2.39 3.36 -2.39 3.36 -2.39 -3.36 2.39 -3.36zm-5.54 -1.09l2.38 -3.37 2.39 3.37 -2.39 3.37 -2.38 -3.37zm-0.77 1.09l2.38 3.36 -2.38 3.36 -2.39 -3.36 2.39 -3.36zm-5.55 -1.09l2.38 -3.37 2.39 3.37 -2.39 3.37 -2.38 -3.37zm1.61 4.46l-2.39 3.36 -2.39 -3.36 2.39 -3.36 2.39 3.36zm0 -8.91l-2.39 3.37 -2.39 -3.37 2.39 -3.36 2.39 3.36zm0 -8.91l-2.39 3.37 -2.39 -3.37 2.39 -3.36 2.39 3.36zm0 -8.9l-2.39 3.36 -2.39 -3.36 2.39 -3.37 2.39 3.37zm-2.39 -5.54l-2.39 -3.37 2.39 -3.37 2.39 3.37 -2.39 3.37zm5.54 1.09l-2.39 3.37 -2.38 -3.37 2.38 -3.36 2.39 3.36zm0.77 -1.09l-2.39 -3.37 2.39 -3.37 2.38 3.37 -2.38 3.37zm5.54 1.09l-2.39 3.37 -2.38 -3.37 2.38 -3.36 2.39 3.36zm0.77 -1.09l-2.39 -3.37 2.39 -3.37 2.39 3.37 -2.39 3.37zm5.55 1.09l-2.39 3.37 -2.38 -3.37 2.38 -3.36 2.39 3.36zm0.77 -1.09l-2.39 -3.37 2.39 -3.37 2.38 3.37 -2.38 3.37zm5.54 1.09l-2.39 3.37 -2.38 -3.37 2.38 -3.36 2.39 3.36zm0.78 -1.09l-2.39 -3.37 2.39 -3.37 2.38 3.37 -2.38 3.37zm5.54 1.09l-2.39 3.37 -2.38 -3.37 2.38 -3.36 2.39 3.36zm0.77 -1.09l-2.39 -3.37 2.39 -3.37 2.39 3.37 -2.39 3.37zm5.54 1.09l-2.39 3.37 -2.38 -3.37 2.38 -3.36 2.39 3.36zm0.77 -1.09l-2.38 -3.37 2.38 -3.37 2.38 3.37 -2.38 3.37zm5.54 1.09l-2.39 3.37 -2.39 -3.37 2.39 -3.36 2.39 3.36zm-4.77 17.82l2.39 -3.37 2.39 3.37 -2.39 3.36 -2.39 -3.36zm-0.77 1.09l2.38 3.36 -2.38 3.37 -2.38 -3.37 2.38 -3.36zm-5.54 -1.09l2.38 -3.37 2.39 3.37 -2.39 3.36 -2.38 -3.36zm-0.77 1.09l2.39 3.36 -2.39 3.37 -2.39 -3.37 2.39 -3.36zm-5.54 -1.09l2.38 -3.37 2.39 3.37 -2.39 3.36 -2.38 -3.36zm-0.77 1.09l2.38 3.36 -2.38 3.37 -2.39 -3.37 2.39 -3.36zm-5.55 -1.09l2.38 -3.37 2.39 3.37 -2.39 3.36 -2.38 -3.36zm-0.77 1.09l2.38 3.36 -2.38 3.37 -2.39 -3.37 2.39 -3.36zm-5.54 -1.09l2.38 -3.37 2.39 3.37 -2.39 3.36 -2.38 -3.36zm-0.77 1.09l2.39 3.36 -2.39 3.37 -2.39 -3.37 2.39 -3.36zm-5.54 -1.09l2.38 -3.37 2.39 3.37 -2.39 3.36 -2.38 -3.36zm-0.77 1.09l2.38 3.36 -2.38 3.37 -2.39 -3.37 2.39 -3.36zm-0.77 -1.09l-2.39 3.36 -2.38 -3.36 2.38 -3.37 2.39 3.37zm0 -8.91l-2.39 3.36 -2.38 -3.36 2.38 -3.36 2.39 3.36zm0.77 -1.09l-2.39 -3.36 2.39 -3.37 2.38 3.37 -2.38 3.36zm2.38 5.54l-2.38 3.37 -2.39 -3.37 2.39 -3.36 2.38 3.36zm3.16 -4.45l-2.39 3.36 -2.38 -3.36 2.38 -3.36 2.39 3.36zm0.77 -1.09l-2.39 -3.36 2.39 -3.37 2.39 3.37 -2.39 3.36zm2.39 5.54l-2.39 3.37 -2.39 -3.37 2.39 -3.36 2.39 3.36zm3.16 -4.45l-2.39 3.36 -2.38 -3.36 2.38 -3.36 2.39 3.36zm0.77 -1.09l-2.39 -3.36 2.39 -3.37 2.38 3.37 -2.38 3.36zm2.38 5.54l-2.38 3.37 -2.39 -3.37 2.39 -3.36 2.38 3.36zm3.16 -4.45l-2.39 3.36 -2.38 -3.36 2.38 -3.36 2.39 3.36zm0.78 -1.09l-2.39 -3.36 2.39 -3.37 2.38 3.37 -2.38 3.36zm2.38 5.54l-2.38 3.37 -2.39 -3.37 2.39 -3.36 2.38 3.36zm3.16 -4.45l-2.39 3.36 -2.38 -3.36 2.38 -3.36 2.39 3.36zm0.77 -1.09l-2.39 -3.36 2.39 -3.37 2.39 3.37 -2.39 3.36zm2.39 5.54l-2.39 3.37 -2.39 -3.37 2.39 -3.36 2.39 3.36zm3.16 -4.45l-2.39 3.36 -2.38 -3.36 2.38 -3.36 2.39 3.36zm0.77 -1.09l-2.38 -3.36 2.38 -3.37 2.38 3.37 -2.38 3.36zm2.38 5.54l-2.38 3.37 -2.38 -3.37 2.38 -3.36 2.38 3.36zm3.16 -4.45l-2.39 3.36 -2.39 -3.36 2.39 -3.36 2.39 3.36zm-67.93 89.08l2.39 -3.37 2.38 3.37 -2.38 3.36 -2.39 -3.36zm-0.77 1.09l2.39 3.37 -2.39 3.37 -2.38 -3.37 2.38 -3.37zm-5.55 -1.09l2.39 -3.37 2.38 3.37 -2.38 3.36 -2.39 -3.36zm-0.77 1.09l2.39 3.37 -2.39 3.37 -2.38 -3.37 2.38 -3.37zm-5.54 -1.09l2.39 -3.37 2.38 3.37 -2.38 3.36 -2.39 -3.36zm-0.77 1.09l2.39 3.37 -2.39 3.37 -2.38 -3.37 2.38 -3.37zm-5.54 -1.09l2.39 -3.37 2.39 3.37 -2.39 3.36 -2.39 -3.36zm-0.77 1.09l2.39 3.37 -2.39 3.37 -2.38 -3.37 2.38 -3.37zm-5.55 -1.09l2.39 -3.37 2.38 3.37 -2.38 3.36 -2.39 -3.36zm-0.77 1.09l2.39 3.37 -2.39 3.37 -2.38 -3.37 2.38 -3.37zm-5.54 -1.09l2.39 -3.37 2.38 3.37 -2.38 3.36 -2.39 -3.36zm-0.77 1.09l2.39 3.37 -2.39 3.37 -2.39 -3.37 2.39 -3.37zm-5.54 -1.09l2.39 -3.37 2.38 3.37 -2.38 3.36 -2.39 -3.36zm-0.77 1.09l2.39 3.37 -2.39 3.37 -2.38 -3.37 2.38 -3.37zm-5.55 -1.09l2.39 -3.37 2.38 3.37 -2.38 3.36 -2.39 -3.36zm-0.77 1.09l2.39 3.37 -2.39 3.37 -2.39 -3.37 2.39 -3.37zm-5.54 -1.09l2.39 -3.37 2.39 3.37 -2.39 3.36 -2.39 -3.36zm-0.77 1.09l2.38 3.37 -2.38 3.37 -2.38 -3.37 2.38 -3.37zm-5.54 -1.09l2.39 -3.37 2.39 3.37 -2.39 3.36 -2.39 -3.36zm-0.77 1.09l2.39 3.37 -2.39 3.37 -2.39 -3.37 2.39 -3.37zm0 -171.43l-2.39 -3.37 2.39 -3.37 2.39 3.37 -2.39 3.37zm5.54 1.09l-2.39 3.36 -2.39 -3.36 2.39 -3.37 2.39 3.37zm0.77 -1.09l-2.38 -3.37 2.38 -3.37 2.38 3.37 -2.38 3.37zm5.55 1.09l-2.39 3.36 -2.39 -3.36 2.39 -3.37 2.39 3.37zm0.77 -1.09l-2.39 -3.37 2.39 -3.37 2.39 3.37 -2.39 3.37zm5.54 1.09l-2.38 3.36 -2.39 -3.36 2.39 -3.37 2.38 3.37zm0.77 -1.09l-2.38 -3.37 2.38 -3.37 2.39 3.37 -2.39 3.37zm5.54 1.09l-2.38 3.36 -2.39 -3.36 2.39 -3.37 2.38 3.37zm0.77 -1.09l-2.39 -3.37 2.39 -3.37 2.39 3.37 -2.39 3.37zm5.55 1.09l-2.38 3.36 -2.39 -3.36 2.39 -3.37 2.38 3.37zm0.77 -1.09l-2.38 -3.37 2.38 -3.37 2.39 3.37 -2.39 3.37zm5.54 1.09l-2.38 3.36 -2.39 -3.36 2.39 -3.37 2.38 3.37zm0.77 -1.09l-2.38 -3.37 2.38 -3.36 2.39 3.36 -2.39 3.37zm5.54 1.09l-2.39 3.36 -2.39 -3.36 2.39 -3.37 2.39 3.37zm0.77 -1.09l-2.39 -3.37 2.39 -3.36 2.39 3.36 -2.39 3.37zm5.55 1.09l-2.38 3.36 -2.39 -3.36 2.39 -3.37 2.38 3.37zm0.77 -1.09l-2.38 -3.37 2.38 -3.36 2.39 3.36 -2.39 3.37zm5.54 1.09l-2.38 3.36 -2.39 -3.36 2.39 -3.37 2.38 3.37zm0.77 -1.09l-2.38 -3.37 2.38 -3.36 2.39 3.36 -2.39 3.37zm5.54 1.09l-2.38 3.36 -2.39 -3.36 2.39 -3.37 2.38 3.37zm-4.77 160.34l2.39 -3.37 2.38 3.37 -2.38 3.36 -2.39 -3.36zm-0.77 1.08l2.39 3.37 -2.39 3.37 -2.38 -3.37 2.38 -3.37zm-5.55 -1.08l2.39 -3.37 2.38 3.37 -2.38 3.36 -2.39 -3.36zm-0.77 1.08l2.39 3.37 -2.39 3.37 -2.38 -3.37 2.38 -3.37zm-5.54 -1.08l2.39 -3.37 2.38 3.37 -2.38 3.36 -2.39 -3.36zm-0.77 1.08l2.39 3.37 -2.39 3.37 -2.38 -3.37 2.38 -3.37zm-5.54 -1.08l2.39 -3.37 2.39 3.37 -2.39 3.36 -2.39 -3.36zm-0.77 1.08l2.39 3.37 -2.39 3.37 -2.38 -3.37 2.38 -3.37zm-5.55 -1.08l2.39 -3.37 2.38 3.37 -2.38 3.36 -2.39 -3.36zm-0.77 1.08l2.39 3.37 -2.39 3.37 -2.38 -3.37 2.38 -3.37zm-5.54 -1.08l2.39 -3.37 2.38 3.37 -2.38 3.36 -2.39 -3.36zm-0.77 1.08l2.39 3.37 -2.39 3.37 -2.39 -3.37 2.39 -3.37zm-5.54 -1.08l2.39 -3.37 2.38 3.37 -2.38 3.36 -2.39 -3.36zm-0.77 1.08l2.39 3.37 -2.39 3.37 -2.38 -3.37 2.38 -3.37zm-5.55 -1.08l2.39 -3.37 2.38 3.37 -2.38 3.36 -2.39 -3.36zm-0.77 1.08l2.39 3.37 -2.39 3.37 -2.39 -3.37 2.39 -3.37zm-5.54 -1.08l2.39 -3.37 2.39 3.37 -2.39 3.36 -2.39 -3.36zm-0.77 1.08l2.38 3.37 -2.38 3.37 -2.38 -3.37 2.38 -3.37zm-5.54 -1.08l2.39 -3.37 2.39 3.37 -2.39 3.36 -2.39 -3.36zm-0.77 1.08l2.39 3.37 -2.39 3.37 -2.39 -3.37 2.39 -3.37zm0 -153.61l-2.39 -3.36 2.39 -3.37 2.39 3.37 -2.39 3.36zm5.54 1.09l-2.39 3.37 -2.39 -3.37 2.39 -3.37 2.39 3.37zm0.77 -1.09l-2.38 -3.36 2.38 -3.37 2.38 3.37 -2.38 3.36zm5.55 1.09l-2.39 3.37 -2.39 -3.37 2.39 -3.37 2.39 3.37zm0.77 -1.09l-2.39 -3.36 2.39 -3.37 2.39 3.37 -2.39 3.36zm5.54 1.09l-2.38 3.37 -2.39 -3.37 2.39 -3.37 2.38 3.37zm0.77 -1.09l-2.38 -3.36 2.38 -3.37 2.39 3.37 -2.39 3.36zm5.54 1.09l-2.38 3.37 -2.39 -3.37 2.39 -3.37 2.38 3.37zm0.77 -1.09l-2.39 -3.36 2.39 -3.37 2.39 3.37 -2.39 3.36zm5.55 1.09l-2.38 3.37 -2.39 -3.37 2.39 -3.37 2.38 3.37zm0.77 -1.09l-2.38 -3.36 2.38 -3.37 2.39 3.37 -2.39 3.36zm5.54 1.09l-2.38 3.37 -2.39 -3.37 2.39 -3.37 2.38 3.37zm0.77 -1.09l-2.38 -3.36 2.38 -3.37 2.39 3.37 -2.39 3.36zm5.54 1.09l-2.39 3.37 -2.39 -3.37 2.39 -3.37 2.39 3.37zm0.77 -1.09l-2.38 -3.36 2.38 -3.36 2.39 3.36 -2.39 3.36zm5.55 1.09l-2.38 3.37 -2.39 -3.37 2.39 -3.37 2.38 3.37zm0.77 -1.09l-2.38 -3.36 2.38 -3.36 2.39 3.36 -2.39 3.36zm5.54 1.09l-2.38 3.37 -2.39 -3.37 2.39 -3.37 2.38 3.37zm0.77 -1.09l-2.38 -3.36 2.38 -3.36 2.39 3.36 -2.39 3.36zm5.54 1.09l-2.38 3.37 -2.39 -3.37 2.39 -3.37 2.38 3.37zm-4.77 142.52l2.39 -3.36 2.38 3.36 -2.38 3.37 -2.39 -3.37zm-0.77 1.09l2.39 3.36 -2.39 3.36 -2.38 -3.36 2.38 -3.36zm-5.55 -1.09l2.39 -3.36 2.38 3.36 -2.38 3.37 -2.39 -3.37zm-0.77 1.09l2.39 3.36 -2.39 3.36 -2.38 -3.36 2.38 -3.36zm-5.54 -1.09l2.39 -3.36 2.38 3.36 -2.38 3.37 -2.39 -3.37zm-0.77 1.09l2.39 3.36 -2.39 3.36 -2.38 -3.36 2.38 -3.36zm-5.54 -1.09l2.39 -3.36 2.39 3.36 -2.39 3.37 -2.39 -3.37zm-0.77 1.09l2.39 3.36 -2.39 3.36 -2.38 -3.36 2.38 -3.36zm-5.55 -1.09l2.39 -3.36 2.38 3.36 -2.38 3.37 -2.39 -3.37zm-0.77 1.09l2.39 3.36 -2.39 3.36 -2.38 -3.36 2.38 -3.36zm-5.54 -1.09l2.39 -3.36 2.38 3.36 -2.38 3.37 -2.39 -3.37zm-0.77 1.09l2.39 3.36 -2.39 3.36 -2.39 -3.36 2.39 -3.36zm-5.54 -1.09l2.39 -3.36 2.38 3.36 -2.38 3.37 -2.39 -3.37zm-0.77 1.09l2.39 3.36 -2.39 3.36 -2.38 -3.36 2.38 -3.36zm-5.55 -1.09l2.39 -3.36 2.38 3.36 -2.38 3.37 -2.39 -3.37zm-0.77 1.09l2.39 3.36 -2.39 3.36 -2.39 -3.36 2.39 -3.36zm-5.54 -1.09l2.39 -3.36 2.39 3.36 -2.39 3.37 -2.39 -3.37zm-0.77 1.09l2.38 3.36 -2.38 3.36 -2.38 -3.36 2.38 -3.36zm-5.54 -1.09l2.39 -3.36 2.39 3.36 -2.39 3.37 -2.39 -3.37zm-0.77 1.09l2.39 3.36 -2.39 3.36 -2.39 -3.36 2.39 -3.36zm0 -135.8l-2.39 -3.36 2.39 -3.37 2.39 3.37 -2.39 3.36zm5.54 1.09l-2.39 3.36 -2.39 -3.36 2.39 -3.36 2.39 3.36zm0.77 -1.09l-2.38 -3.36 2.38 -3.37 2.38 3.37 -2.38 3.36zm5.55 1.09l-2.39 3.36 -2.39 -3.36 2.39 -3.36 2.39 3.36zm0.77 -1.09l-2.39 -3.36 2.39 -3.37 2.39 3.37 -2.39 3.36zm5.54 1.09l-2.38 3.36 -2.39 -3.36 2.39 -3.36 2.38 3.36zm0.77 -1.09l-2.38 -3.36 2.38 -3.37 2.39 3.37 -2.39 3.36zm5.54 1.09l-2.38 3.36 -2.39 -3.36 2.39 -3.36 2.38 3.36zm0.77 -1.09l-2.39 -3.36 2.39 -3.37 2.39 3.37 -2.39 3.36zm5.55 1.09l-2.38 3.36 -2.39 -3.36 2.39 -3.36 2.38 3.36zm0.77 -1.09l-2.38 -3.36 2.38 -3.37 2.39 3.37 -2.39 3.36zm5.54 1.09l-2.38 3.36 -2.39 -3.36 2.39 -3.36 2.38 3.36zm0.77 -1.09l-2.38 -3.36 2.38 -3.37 2.39 3.37 -2.39 3.36zm5.54 1.09l-2.39 3.36 -2.39 -3.36 2.39 -3.36 2.39 3.36zm0.77 -1.09l-2.38 -3.36 2.38 -3.37 2.39 3.37 -2.39 3.36zm5.55 1.09l-2.38 3.36 -2.39 -3.36 2.39 -3.36 2.38 3.36zm0.77 -1.09l-2.38 -3.36 2.38 -3.37 2.39 3.37 -2.39 3.36zm5.54 1.09l-2.38 3.36 -2.39 -3.36 2.39 -3.36 2.38 3.36zm0.77 -1.09l-2.38 -3.36 2.38 -3.37 2.39 3.37 -2.39 3.36zm5.54 1.09l-2.38 3.36 -2.39 -3.36 2.39 -3.36 2.38 3.36zm-4.77 124.71l2.39 -3.36 2.38 3.36 -2.38 3.37 -2.39 -3.37zm-0.77 1.09l2.39 3.36 -2.39 3.37 -2.38 -3.37 2.38 -3.36zm-5.55 -1.09l2.39 -3.36 2.38 3.36 -2.38 3.37 -2.39 -3.37zm-0.77 1.09l2.39 3.36 -2.39 3.37 -2.38 -3.37 2.38 -3.36zm-5.54 -1.09l2.39 -3.36 2.38 3.36 -2.38 3.37 -2.39 -3.37zm-0.77 1.09l2.39 3.36 -2.39 3.37 -2.38 -3.37 2.38 -3.36zm-5.54 -1.09l2.39 -3.36 2.39 3.36 -2.39 3.37 -2.39 -3.37zm-0.77 1.09l2.39 3.36 -2.39 3.37 -2.38 -3.37 2.38 -3.36zm-5.55 -1.09l2.39 -3.36 2.38 3.36 -2.38 3.37 -2.39 -3.37zm-0.77 1.09l2.39 3.36 -2.39 3.37 -2.38 -3.37 2.38 -3.36zm-5.54 -1.09l2.39 -3.36 2.38 3.36 -2.38 3.37 -2.39 -3.37zm-0.77 1.09l2.39 3.36 -2.39 3.37 -2.39 -3.37 2.39 -3.36zm-5.54 -1.09l2.39 -3.36 2.38 3.36 -2.38 3.37 -2.39 -3.37zm-0.77 1.09l2.39 3.36 -2.39 3.37 -2.38 -3.37 2.38 -3.36zm-5.55 -1.09l2.39 -3.36 2.38 3.36 -2.38 3.37 -2.39 -3.37zm-0.77 1.09l2.39 3.36 -2.39 3.37 -2.39 -3.37 2.39 -3.36zm-5.54 -1.09l2.39 -3.36 2.39 3.36 -2.39 3.37 -2.39 -3.37zm-0.77 1.09l2.38 3.36 -2.38 3.37 -2.38 -3.37 2.38 -3.36zm-5.54 -1.09l2.39 -3.36 2.39 3.36 -2.39 3.37 -2.39 -3.37zm-0.77 1.09l2.39 3.36 -2.39 3.37 -2.39 -3.37 2.39 -3.36zm0 -117.98l-2.39 -3.37 2.39 -3.37 2.39 3.37 -2.39 3.37zm5.54 1.09l-2.39 3.36 -2.39 -3.36 2.39 -3.37 2.39 3.37zm0.77 -1.09l-2.38 -3.37 2.38 -3.37 2.38 3.37 -2.38 3.37zm5.55 1.09l-2.39 3.36 -2.39 -3.36 2.39 -3.37 2.39 3.37zm0.77 -1.09l-2.39 -3.37 2.39 -3.37 2.39 3.37 -2.39 3.37zm5.54 1.09l-2.38 3.36 -2.39 -3.36 2.39 -3.37 2.38 3.37zm0.77 -1.09l-2.38 -3.37 2.38 -3.37 2.39 3.37 -2.39 3.37zm5.54 1.09l-2.38 3.36 -2.39 -3.36 2.39 -3.37 2.38 3.37zm0.77 -1.09l-2.39 -3.37 2.39 -3.37 2.39 3.37 -2.39 3.37zm5.55 1.09l-2.38 3.36 -2.39 -3.36 2.39 -3.37 2.38 3.37zm0.77 -1.09l-2.38 -3.37 2.38 -3.37 2.39 3.37 -2.39 3.37zm5.54 1.09l-2.38 3.36 -2.39 -3.36 2.39 -3.37 2.38 3.37zm0.77 -1.09l-2.38 -3.37 2.38 -3.37 2.39 3.37 -2.39 3.37zm5.54 1.09l-2.39 3.36 -2.39 -3.36 2.39 -3.37 2.39 3.37zm0.77 -1.09l-2.38 -3.37 2.38 -3.37 2.39 3.37 -2.39 3.37zm5.55 1.09l-2.38 3.36 -2.39 -3.36 2.39 -3.37 2.38 3.37zm0.77 -1.09l-2.38 -3.37 2.38 -3.37 2.39 3.37 -2.39 3.37zm5.54 1.09l-2.38 3.36 -2.39 -3.36 2.39 -3.37 2.38 3.37zm0.77 -1.09l-2.38 -3.37 2.38 -3.37 2.39 3.37 -2.39 3.37zm5.54 1.09l-2.38 3.36 -2.39 -3.36 2.39 -3.37 2.38 3.37zm-4.77 106.89l2.39 -3.36 2.38 3.36 -2.38 3.36 -2.39 -3.36zm-0.77 1.09l2.39 3.37 -2.39 3.36 -2.38 -3.36 2.38 -3.37zm-5.55 -1.09l2.39 -3.36 2.38 3.36 -2.38 3.36 -2.39 -3.36zm-0.77 1.09l2.39 3.37 -2.39 3.36 -2.38 -3.36 2.38 -3.37zm-5.54 -1.09l2.39 -3.36 2.38 3.36 -2.38 3.36 -2.39 -3.36zm-0.77 1.09l2.39 3.37 -2.39 3.36 -2.38 -3.36 2.38 -3.37zm-5.54 -1.09l2.39 -3.36 2.39 3.36 -2.39 3.36 -2.39 -3.36zm-0.77 1.09l2.39 3.37 -2.39 3.36 -2.38 -3.36 2.38 -3.37zm-5.55 -1.09l2.39 -3.36 2.38 3.36 -2.38 3.36 -2.39 -3.36zm-0.77 1.09l2.39 3.37 -2.39 3.36 -2.38 -3.36 2.38 -3.37zm-5.54 -1.09l2.39 -3.36 2.38 3.36 -2.38 3.36 -2.39 -3.36zm-0.77 1.09l2.39 3.37 -2.39 3.36 -2.39 -3.36 2.39 -3.37zm-5.54 -1.09l2.39 -3.36 2.38 3.36 -2.38 3.36 -2.39 -3.36zm-0.77 1.09l2.39 3.37 -2.39 3.36 -2.38 -3.36 2.38 -3.37zm-5.55 -1.09l2.39 -3.36 2.38 3.36 -2.38 3.36 -2.39 -3.36zm-0.77 1.09l2.39 3.37 -2.39 3.36 -2.39 -3.36 2.39 -3.37zm-5.54 -1.09l2.39 -3.36 2.39 3.36 -2.39 3.36 -2.39 -3.36zm-0.77 1.09l2.38 3.37 -2.38 3.36 -2.38 -3.36 2.38 -3.37zm-5.54 -1.09l2.39 -3.36 2.39 3.36 -2.39 3.36 -2.39 -3.36zm-0.77 1.09l2.39 3.37 -2.39 3.36 -2.39 -3.36 2.39 -3.37zm0 -100.17l-2.39 -3.36 2.39 -3.36 2.39 3.36 -2.39 3.36zm5.54 1.09l-2.39 3.36 -2.39 -3.36 2.39 -3.37 2.39 3.37zm0.77 -1.09l-2.38 -3.36 2.38 -3.36 2.38 3.36 -2.38 3.36zm5.55 1.09l-2.39 3.36 -2.39 -3.36 2.39 -3.37 2.39 3.37zm0.77 -1.09l-2.39 -3.36 2.39 -3.36 2.39 3.36 -2.39 3.36zm5.54 1.09l-2.38 3.36 -2.39 -3.36 2.39 -3.37 2.38 3.37zm0.77 -1.09l-2.38 -3.36 2.38 -3.36 2.39 3.36 -2.39 3.36zm5.54 1.09l-2.38 3.36 -2.39 -3.36 2.39 -3.37 2.38 3.37zm0.77 -1.09l-2.39 -3.36 2.39 -3.36 2.39 3.36 -2.39 3.36zm5.55 1.09l-2.38 3.36 -2.39 -3.36 2.39 -3.37 2.38 3.37zm0.77 -1.09l-2.38 -3.36 2.38 -3.36 2.39 3.36 -2.39 3.36zm5.54 1.09l-2.38 3.36 -2.39 -3.36 2.39 -3.37 2.38 3.37zm0.77 -1.09l-2.38 -3.36 2.38 -3.36 2.39 3.36 -2.39 3.36zm5.54 1.09l-2.39 3.36 -2.39 -3.36 2.39 -3.37 2.39 3.37zm0.77 -1.09l-2.38 -3.36 2.38 -3.36 2.39 3.36 -2.39 3.36zm5.55 1.09l-2.38 3.36 -2.39 -3.36 2.39 -3.37 2.38 3.37zm0.77 -1.09l-2.38 -3.36 2.38 -3.36 2.39 3.36 -2.39 3.36zm5.54 1.09l-2.38 3.36 -2.39 -3.36 2.39 -3.37 2.38 3.37zm0.77 -1.09l-2.38 -3.36 2.38 -3.36 2.39 3.36 -2.39 3.36zm0.77 1.09l2.39 -3.37 2.38 3.37 -2.38 3.36 -2.39 -3.36zm0 8.9l2.39 -3.36 2.38 3.36 -2.38 3.37 -2.39 -3.37zm0 8.91l2.39 -3.37 2.38 3.37 -2.38 3.36 -2.39 -3.36zm0 8.9l2.39 -3.37 2.38 3.37 -2.38 3.37 -2.39 -3.37zm0 8.91l2.39 -3.36 2.38 3.36 -2.38 3.37 -2.39 -3.37zm0 8.91l2.39 -3.36 2.38 3.36 -2.38 3.36 -2.39 -3.36zm0 8.91l2.39 -3.37 2.38 3.37 -2.38 3.36 -2.39 -3.36zm0 8.9l2.39 -3.37 2.38 3.37 -2.38 3.37 -2.39 -3.37zm0 8.9l2.39 -3.36 2.38 3.36 -2.38 3.37 -2.39 -3.37zm0 8.91l2.39 -3.36 2.38 3.36 -2.38 3.37 -2.39 -3.37zm0 8.91l2.39 -3.36 2.38 3.36 -2.38 3.37 -2.39 -3.37zm-0.77 1.09l2.39 3.36 -2.39 3.36 -2.38 -3.36 2.38 -3.36zm-5.55 -1.09l2.39 -3.36 2.38 3.36 -2.38 3.37 -2.39 -3.37zm-0.77 1.09l2.39 3.36 -2.39 3.36 -2.38 -3.36 2.38 -3.36zm-5.54 -1.09l2.39 -3.36 2.38 3.36 -2.38 3.37 -2.39 -3.37zm-0.77 1.09l2.39 3.36 -2.39 3.36 -2.38 -3.36 2.38 -3.36zm-5.54 -1.09l2.39 -3.36 2.39 3.36 -2.39 3.37 -2.39 -3.37zm-0.77 1.09l2.39 3.36 -2.39 3.36 -2.38 -3.36 2.38 -3.36zm-5.55 -1.09l2.39 -3.36 2.38 3.36 -2.38 3.37 -2.39 -3.37zm-0.77 1.09l2.39 3.36 -2.39 3.36 -2.38 -3.36 2.38 -3.36zm-5.54 -1.09l2.39 -3.36 2.38 3.36 -2.38 3.37 -2.39 -3.37zm-0.77 1.09l2.39 3.36 -2.39 3.36 -2.39 -3.36 2.39 -3.36zm-5.54 -1.09l2.39 -3.36 2.38 3.36 -2.38 3.37 -2.39 -3.37zm-0.77 1.09l2.39 3.36 -2.39 3.36 -2.38 -3.36 2.38 -3.36zm-5.55 -1.09l2.39 -3.36 2.38 3.36 -2.38 3.37 -2.39 -3.37zm-0.77 1.09l2.39 3.36 -2.39 3.36 -2.39 -3.36 2.39 -3.36zm-5.54 -1.09l2.39 -3.36 2.39 3.36 -2.39 3.37 -2.39 -3.37zm-0.77 1.09l2.38 3.36 -2.38 3.36 -2.38 -3.36 2.38 -3.36zm-5.54 -1.09l2.39 -3.36 2.39 3.36 -2.39 3.37 -2.39 -3.37zm-0.77 1.09l2.39 3.36 -2.39 3.36 -2.39 -3.36 2.39 -3.36zm0 -82.35l-2.39 -3.37 2.39 -3.36 2.39 3.36 -2.39 3.37zm5.54 1.08l-2.39 3.37 -2.39 -3.37 2.39 -3.36 2.39 3.36zm0.77 -1.08l-2.38 -3.37 2.38 -3.36 2.38 3.36 -2.38 3.37zm5.55 1.08l-2.39 3.37 -2.39 -3.37 2.39 -3.36 2.39 3.36zm0.77 -1.08l-2.39 -3.37 2.39 -3.36 2.39 3.36 -2.39 3.37zm5.54 1.08l-2.38 3.37 -2.39 -3.37 2.39 -3.36 2.38 3.36zm0.77 -1.08l-2.38 -3.37 2.38 -3.36 2.39 3.36 -2.39 3.37zm5.54 1.08l-2.38 3.37 -2.39 -3.37 2.39 -3.36 2.38 3.36zm0.77 -1.08l-2.39 -3.37 2.39 -3.36 2.39 3.36 -2.39 3.37zm5.55 1.08l-2.38 3.37 -2.39 -3.37 2.39 -3.36 2.38 3.36zm0.77 -1.08l-2.38 -3.37 2.38 -3.36 2.39 3.36 -2.39 3.37zm5.54 1.08l-2.38 3.37 -2.39 -3.37 2.39 -3.36 2.38 3.36zm0.77 -1.08l-2.38 -3.37 2.38 -3.36 2.39 3.36 -2.39 3.37zm5.54 1.08l-2.39 3.37 -2.39 -3.37 2.39 -3.36 2.39 3.36zm0.77 -1.08l-2.38 -3.37 2.38 -3.36 2.39 3.36 -2.39 3.37zm5.55 1.08l-2.38 3.37 -2.39 -3.37 2.39 -3.36 2.38 3.36zm0.77 -1.08l-2.38 -3.37 2.38 -3.36 2.39 3.36 -2.39 3.37zm5.54 1.08l-2.38 3.37 -2.39 -3.37 2.39 -3.36 2.38 3.36zm-1.61 -4.45l2.38 -3.36 2.39 3.36 -2.39 3.37 -2.38 -3.37zm0 8.91l2.38 -3.37 2.39 3.37 -2.39 3.36 -2.38 -3.36zm0 8.91l2.38 -3.36 2.39 3.36 -2.39 3.37 -2.38 -3.37zm0 8.91l2.38 -3.37 2.39 3.37 -2.39 3.37 -2.38 -3.37zm0 8.91l2.38 -3.37 2.39 3.37 -2.39 3.36 -2.38 -3.36zm0 8.9l2.38 -3.36 2.39 3.36 -2.39 3.37 -2.38 -3.37zm0 8.91l2.38 -3.36 2.39 3.36 -2.39 3.37 -2.38 -3.37zm0 8.91l2.38 -3.36 2.39 3.36 -2.39 3.36 -2.38 -3.36zm0 8.9l2.38 -3.36 2.39 3.36 -2.39 3.37 -2.38 -3.37zm2.38 5.55l2.39 3.37 -2.39 3.36 -2.38 -3.36 2.38 -3.37zm-5.55 -1.09l2.39 -3.36 2.38 3.36 -2.38 3.37 -2.39 -3.37zm-0.77 1.09l2.39 3.37 -2.39 3.36 -2.38 -3.36 2.38 -3.37zm-5.54 -1.09l2.39 -3.36 2.38 3.36 -2.38 3.37 -2.39 -3.37zm-0.77 1.09l2.39 3.37 -2.39 3.36 -2.38 -3.36 2.38 -3.37zm-5.54 -1.09l2.39 -3.36 2.39 3.36 -2.39 3.37 -2.39 -3.37zm-0.77 1.09l2.39 3.37 -2.39 3.36 -2.38 -3.36 2.38 -3.37zm-5.55 -1.09l2.39 -3.36 2.38 3.36 -2.38 3.37 -2.39 -3.37zm-0.77 1.09l2.39 3.37 -2.39 3.36 -2.38 -3.36 2.38 -3.37zm-5.54 -1.09l2.39 -3.36 2.38 3.36 -2.38 3.37 -2.39 -3.37zm-0.77 1.09l2.39 3.37 -2.39 3.36 -2.39 -3.36 2.39 -3.37zm-5.54 -1.09l2.39 -3.36 2.38 3.36 -2.38 3.37 -2.39 -3.37zm-0.77 1.09l2.39 3.37 -2.39 3.36 -2.38 -3.36 2.38 -3.37zm-5.55 -1.09l2.39 -3.36 2.38 3.36 -2.38 3.37 -2.39 -3.37zm-0.77 1.09l2.39 3.37 -2.39 3.36 -2.39 -3.36 2.39 -3.37zm-5.54 -1.09l2.39 -3.36 2.39 3.36 -2.39 3.37 -2.39 -3.37zm-0.77 1.09l2.38 3.37 -2.38 3.36 -2.38 -3.36 2.38 -3.37zm-5.54 -1.09l2.39 -3.36 2.39 3.36 -2.39 3.37 -2.39 -3.37zm-0.77 1.09l2.39 3.37 -2.39 3.36 -2.39 -3.36 2.39 -3.37zm0 -64.53l-2.39 -3.36 2.39 -3.37 2.39 3.37 -2.39 3.36zm5.54 1.09l-2.39 3.36 -2.39 -3.36 2.39 -3.37 2.39 3.37zm0.77 -1.09l-2.38 -3.36 2.38 -3.37 2.38 3.37 -2.38 3.36zm5.55 1.09l-2.39 3.36 -2.39 -3.36 2.39 -3.37 2.39 3.37zm0.77 -1.09l-2.39 -3.36 2.39 -3.37 2.39 3.37 -2.39 3.36zm5.54 1.09l-2.38 3.36 -2.39 -3.36 2.39 -3.37 2.38 3.37zm0.77 -1.09l-2.38 -3.36 2.38 -3.37 2.39 3.37 -2.39 3.36zm5.54 1.09l-2.38 3.36 -2.39 -3.36 2.39 -3.37 2.38 3.37zm0.77 -1.09l-2.39 -3.36 2.39 -3.37 2.39 3.37 -2.39 3.36zm5.55 1.09l-2.38 3.36 -2.39 -3.36 2.39 -3.37 2.38 3.37zm0.77 -1.09l-2.38 -3.36 2.38 -3.37 2.39 3.37 -2.39 3.36zm5.54 1.09l-2.38 3.36 -2.39 -3.36 2.39 -3.37 2.38 3.37zm0.77 -1.09l-2.38 -3.36 2.38 -3.37 2.39 3.37 -2.39 3.36zm5.54 1.09l-2.39 3.36 -2.39 -3.36 2.39 -3.37 2.39 3.37zm0.77 -1.09l-2.38 -3.36 2.38 -3.37 2.39 3.37 -2.39 3.36zm5.55 1.09l-2.38 3.36 -2.39 -3.36 2.39 -3.37 2.38 3.37zm0.77 -1.09l-2.38 -3.36 2.38 -3.37 2.39 3.37 -2.39 3.36zm0.77 1.09l2.39 -3.37 2.38 3.37 -2.38 3.36 -2.39 -3.36zm0 8.9l2.39 -3.37 2.38 3.37 -2.38 3.37 -2.39 -3.37zm0 8.91l2.39 -3.36 2.38 3.36 -2.38 3.37 -2.39 -3.37zm0 8.91l2.39 -3.36 2.38 3.36 -2.38 3.36 -2.39 -3.36zm0 8.91l2.39 -3.37 2.38 3.37 -2.38 3.36 -2.39 -3.36zm0 8.9l2.39 -3.37 2.38 3.37 -2.38 3.37 -2.39 -3.37zm0 8.9l2.39 -3.36 2.38 3.36 -2.38 3.37 -2.39 -3.37zm-0.77 1.09l2.39 3.36 -2.39 3.37 -2.38 -3.37 2.38 -3.36zm-5.54 -1.09l2.39 -3.36 2.38 3.36 -2.38 3.37 -2.39 -3.37zm-0.77 1.09l2.39 3.36 -2.39 3.37 -2.38 -3.37 2.38 -3.36zm-5.54 -1.09l2.39 -3.36 2.39 3.36 -2.39 3.37 -2.39 -3.37zm-0.77 1.09l2.39 3.36 -2.39 3.37 -2.38 -3.37 2.38 -3.36zm-5.55 -1.09l2.39 -3.36 2.38 3.36 -2.38 3.37 -2.39 -3.37zm-0.77 1.09l2.39 3.36 -2.39 3.37 -2.38 -3.37 2.38 -3.36zm-5.54 -1.09l2.39 -3.36 2.38 3.36 -2.38 3.37 -2.39 -3.37zm-0.77 1.09l2.39 3.36 -2.39 3.37 -2.39 -3.37 2.39 -3.36zm-5.54 -1.09l2.39 -3.36 2.38 3.36 -2.38 3.37 -2.39 -3.37zm-0.77 1.09l2.39 3.36 -2.39 3.37 -2.38 -3.37 2.38 -3.36zm-5.55 -1.09l2.39 -3.36 2.38 3.36 -2.38 3.37 -2.39 -3.37zm-0.77 1.09l2.39 3.36 -2.39 3.37 -2.39 -3.37 2.39 -3.36zm-5.54 -1.09l2.39 -3.36 2.39 3.36 -2.39 3.37 -2.39 -3.37zm-0.77 1.09l2.38 3.36 -2.38 3.37 -2.38 -3.37 2.38 -3.36zm-5.54 -1.09l2.39 -3.36 2.39 3.36 -2.39 3.37 -2.39 -3.37zm-0.77 1.09l2.39 3.36 -2.39 3.37 -2.39 -3.37 2.39 -3.36zm0 -46.72l-2.39 -3.37 2.39 -3.36 2.39 3.36 -2.39 3.37zm5.54 1.09l-2.39 3.37 -2.39 -3.37 2.39 -3.37 2.39 3.37zm0.77 -1.09l-2.38 -3.37 2.38 -3.36 2.38 3.36 -2.38 3.37zm5.55 1.09l-2.39 3.37 -2.39 -3.37 2.39 -3.37 2.39 3.37zm0.77 -1.09l-2.39 -3.37 2.39 -3.36 2.39 3.36 -2.39 3.37zm5.54 1.09l-2.38 3.37 -2.39 -3.37 2.39 -3.37 2.38 3.37zm0.77 -1.09l-2.38 -3.37 2.38 -3.36 2.39 3.36 -2.39 3.37zm5.54 1.09l-2.38 3.37 -2.39 -3.37 2.39 -3.37 2.38 3.37zm0.77 -1.09l-2.39 -3.37 2.39 -3.36 2.39 3.36 -2.39 3.37zm5.55 1.09l-2.38 3.37 -2.39 -3.37 2.39 -3.37 2.38 3.37zm0.77 -1.09l-2.38 -3.37 2.38 -3.36 2.39 3.36 -2.39 3.37zm5.54 1.09l-2.38 3.37 -2.39 -3.37 2.39 -3.37 2.38 3.37zm0.77 -1.09l-2.38 -3.37 2.38 -3.36 2.39 3.36 -2.39 3.37zm5.54 1.09l-2.39 3.37 -2.39 -3.37 2.39 -3.37 2.39 3.37zm0.77 -1.09l-2.38 -3.37 2.38 -3.36 2.39 3.36 -2.39 3.37zm5.55 1.09l-2.38 3.37 -2.39 -3.37 2.39 -3.37 2.38 3.37zm-1.61 -4.45l2.38 -3.36 2.39 3.36 -2.39 3.37 -2.38 -3.37zm0 8.91l2.38 -3.37 2.39 3.37 -2.39 3.37 -2.38 -3.37zm0 8.91l2.38 -3.37 2.39 3.37 -2.39 3.36 -2.38 -3.36zm0 8.9l2.38 -3.36 2.39 3.36 -2.39 3.37 -2.38 -3.37zm0 8.91l2.38 -3.36 2.39 3.36 -2.39 3.37 -2.38 -3.37zm2.38 5.55l2.39 3.36 -2.39 3.36 -2.38 -3.36 2.38 -3.36zm-5.54 -1.09l2.39 -3.37 2.38 3.37 -2.38 3.37 -2.39 -3.37zm-0.77 1.09l2.39 3.36 -2.39 3.36 -2.38 -3.36 2.38 -3.36zm-5.54 -1.09l2.39 -3.37 2.39 3.37 -2.39 3.37 -2.39 -3.37zm-0.77 1.09l2.39 3.36 -2.39 3.36 -2.38 -3.36 2.38 -3.36zm-5.55 -1.09l2.39 -3.37 2.38 3.37 -2.38 3.37 -2.39 -3.37zm-0.77 1.09l2.39 3.36 -2.39 3.36 -2.38 -3.36 2.38 -3.36zm-5.54 -1.09l2.39 -3.37 2.38 3.37 -2.38 3.37 -2.39 -3.37zm-0.77 1.09l2.39 3.36 -2.39 3.36 -2.39 -3.36 2.39 -3.36zm-5.54 -1.09l2.39 -3.37 2.38 3.37 -2.38 3.37 -2.39 -3.37zm-0.77 1.09l2.39 3.36 -2.39 3.36 -2.38 -3.36 2.38 -3.36zm-5.55 -1.09l2.39 -3.37 2.38 3.37 -2.38 3.37 -2.39 -3.37zm-0.77 1.09l2.39 3.36 -2.39 3.36 -2.39 -3.36 2.39 -3.36zm-5.54 -1.09l2.39 -3.37 2.39 3.37 -2.39 3.37 -2.39 -3.37zm-0.77 1.09l2.38 3.36 -2.38 3.36 -2.38 -3.36 2.38 -3.36zm-5.54 -1.09l2.39 -3.37 2.39 3.37 -2.39 3.37 -2.39 -3.37zm-0.77 1.09l2.39 3.36 -2.39 3.36 -2.39 -3.36 2.39 -3.36zm0 -28.9l-2.39 -3.37 2.39 -3.37 2.39 3.37 -2.39 3.37zm5.54 1.09l-2.39 3.37 -2.39 -3.37 2.39 -3.36 2.39 3.36zm0.77 -1.09l-2.38 -3.37 2.38 -3.37 2.38 3.37 -2.38 3.37zm5.55 1.09l-2.39 3.37 -2.39 -3.37 2.39 -3.36 2.39 3.36zm0.77 -1.09l-2.39 -3.37 2.39 -3.37 2.39 3.37 -2.39 3.37zm5.54 1.09l-2.38 3.37 -2.39 -3.37 2.39 -3.36 2.38 3.36zm0.77 -1.09l-2.38 -3.37 2.38 -3.37 2.39 3.37 -2.39 3.37zm5.54 1.09l-2.38 3.37 -2.39 -3.37 2.39 -3.36 2.38 3.36zm0.77 -1.09l-2.39 -3.37 2.39 -3.37 2.39 3.37 -2.39 3.37zm5.55 1.09l-2.38 3.37 -2.39 -3.37 2.39 -3.36 2.38 3.36zm0.77 -1.09l-2.38 -3.37 2.38 -3.37 2.39 3.37 -2.39 3.37zm5.54 1.09l-2.38 3.37 -2.39 -3.37 2.39 -3.36 2.38 3.36zm0.77 -1.09l-2.38 -3.37 2.38 -3.37 2.39 3.37 -2.39 3.37zm5.54 1.09l-2.39 3.37 -2.39 -3.37 2.39 -3.36 2.39 3.36zm0.77 -1.09l-2.38 -3.37 2.38 -3.37 2.39 3.37 -2.39 3.37zm0.77 1.09l2.39 -3.36 2.38 3.36 -2.38 3.37 -2.39 -3.37zm0 8.91l2.39 -3.36 2.38 3.36 -2.38 3.36 -2.39 -3.36zm0 8.91l2.39 -3.37 2.38 3.37 -2.38 3.36 -2.39 -3.36zm-0.77 1.09l2.39 3.36 -2.39 3.37 -2.38 -3.37 2.38 -3.36zm-5.54 -1.09l2.39 -3.37 2.39 3.37 -2.39 3.36 -2.39 -3.36zm-0.77 1.09l2.39 3.36 -2.39 3.37 -2.38 -3.37 2.38 -3.36zm-5.55 -1.09l2.39 -3.37 2.38 3.37 -2.38 3.36 -2.39 -3.36zm-0.77 1.09l2.39 3.36 -2.39 3.37 -2.38 -3.37 2.38 -3.36zm-5.54 -1.09l2.39 -3.37 2.38 3.37 -2.38 3.36 -2.39 -3.36zm-0.77 1.09l2.39 3.36 -2.39 3.37 -2.39 -3.37 2.39 -3.36zm-5.54 -1.09l2.39 -3.37 2.38 3.37 -2.38 3.36 -2.39 -3.36zm-0.77 1.09l2.39 3.36 -2.39 3.37 -2.38 -3.37 2.38 -3.36zm-5.55 -1.09l2.39 -3.37 2.38 3.37 -2.38 3.36 -2.39 -3.36zm-0.77 1.09l2.39 3.36 -2.39 3.37 -2.39 -3.37 2.39 -3.36zm-5.54 -1.09l2.39 -3.37 2.39 3.37 -2.39 3.36 -2.39 -3.36zm-0.77 1.09l2.38 3.36 -2.38 3.37 -2.38 -3.37 2.38 -3.36zm-5.54 -1.09l2.39 -3.37 2.39 3.37 -2.39 3.36 -2.39 -3.36zm-0.77 1.09l2.39 3.36 -2.39 3.37 -2.39 -3.37 2.39 -3.36zm0 -11.08l-2.39 -3.36 2.39 -3.37 2.39 3.37 -2.39 3.36zm2.39 5.54l-2.39 3.37 -2.39 -3.37 2.39 -3.36 2.39 3.36zm3.16 -4.45l-2.39 3.36 -2.39 -3.36 2.39 -3.36 2.39 3.36zm0.77 -1.09l-2.38 -3.36 2.38 -3.37 2.38 3.37 -2.38 3.36zm2.38 5.54l-2.38 3.37 -2.38 -3.37 2.38 -3.36 2.38 3.36zm3.16 -4.45l-2.39 3.36 -2.39 -3.36 2.39 -3.36 2.39 3.36zm0.77 -1.09l-2.39 -3.36 2.39 -3.37 2.39 3.37 -2.39 3.36zm2.39 5.54l-2.39 3.37 -2.39 -3.37 2.39 -3.36 2.39 3.36zm3.16 -4.45l-2.38 3.36 -2.39 -3.36 2.39 -3.36 2.38 3.36zm0.77 -1.09l-2.38 -3.36 2.38 -3.37 2.39 3.37 -2.39 3.36zm2.39 5.54l-2.39 3.37 -2.38 -3.37 2.38 -3.36 2.39 3.36zm3.16 -4.45l-2.38 3.36 -2.39 -3.36 2.39 -3.36 2.38 3.36zm0.77 -1.09l-2.39 -3.36 2.39 -3.37 2.39 3.37 -2.39 3.36zm2.39 5.54l-2.39 3.37 -2.39 -3.37 2.39 -3.36 2.39 3.36zm3.16 -4.45l-2.38 3.36 -2.39 -3.36 2.39 -3.36 2.38 3.36zm0.77 -1.09l-2.38 -3.36 2.38 -3.37 2.39 3.37 -2.39 3.36zm2.39 5.54l-2.39 3.37 -2.38 -3.37 2.38 -3.36 2.39 3.36zm3.15 -4.45l-2.38 3.36 -2.39 -3.36 2.39 -3.36 2.38 3.36zm0.77 -1.09l-2.38 -3.36 2.38 -3.37 2.39 3.37 -2.39 3.36zm2.39 5.54l-2.39 3.37 -2.38 -3.37 2.38 -3.36 2.39 3.36zm3.16 -4.45l-2.39 3.36 -2.39 -3.36 2.39 -3.36 2.39 3.36zm3.16 4.45l-2.39 3.37 -2.38 -3.37 2.38 -3.36 2.39 3.36zm-4.77 -8.9l2.38 -3.37 2.39 3.37 -2.39 3.36 -2.38 -3.36z"
   id="path188" />
  </g>
 </g>
</svg>
