<?xml version="1.0" encoding="UTF-8" standalone="no"?>
<!-- Created with Inkscape (http://www.inkscape.org/) -->

<svg
   width="3.0692742in"
   height="4.2872605in"
   viewBox="0 0 276.23468 385.85345"
   id="svg11376"
   version="1.1"
   xmlns="http://www.w3.org/2000/svg"
   xmlns:svg="http://www.w3.org/2000/svg"
   xmlns:rdf="http://www.w3.org/1999/02/22-rdf-syntax-ns#"
   xmlns:cc="http://creativecommons.org/ns#"
   xmlns:dc="http://purl.org/dc/elements/1.1/">
  <defs
     id="defs11378" />
  <metadata
     id="metadata11381">
    <rdf:RDF>
      <cc:Work
         rdf:about="">
        <dc:format>image/svg+xml</dc:format>
        <dc:type
           rdf:resource="http://purl.org/dc/dcmitype/StillImage" />
      </cc:Work>
    </rdf:RDF>
  </metadata>
  <g
     id="layer1"
     transform="translate(-67.480553,197.62025)">
    <g
       id="card_ad"
       transform="matrix(1.2319315,0,0,1.233501,-502.33095,-159.4493)">
      <rect
         ry="10.66401"
         rx="10.677597"
         style="display:inline;fill:#ffffff;fill-opacity:1;stroke:#000000;stroke-width:1.00057;stroke-miterlimit:4;stroke-dasharray:none;stroke-opacity:1"
         id="rect6367-6"
         width="223.22835"
         height="311.81104"
         x="463.03534"
         y="-30.444927" />
      <path
         id="path6399-9"
         d="m 480.2527,39.5283 c -2.161,-3.5686 -4.4344,-7.0371 -7.2754,-10 2.841,-2.9628 5.1144,-6.4313 7.2754,-10 2.1609,3.5687 4.4343,7.0372 7.2753,10 -2.841,2.9629 -5.1144,6.4314 -7.2753,10 z"
         style="display:inline;opacity:1;fill:#d40000" />
      <path
         style="display:inline;opacity:1;fill:#d40000"
         d="m 669.04725,231.3929 c -2.161,-3.5686 -4.4344,-7.0371 -7.2754,-10 2.841,-2.9628 5.1144,-6.4313 7.2754,-10 2.1609,3.5687 4.4343,7.0372 7.2753,10 -2.841,2.9629 -5.1144,6.4314 -7.2753,10 z"
         id="path6403-1" />
      <path
         style="display:inline;opacity:1;fill:#d40000"
         d="m 574.6495,149.4606 c -5.1862,-8.5648 -10.6424,-16.8891 -17.4609,-24 6.8185,-7.1108 12.2747,-15.4351 17.4609,-24 5.1863,8.5649 10.6425,16.8892 17.461,24 -6.8185,7.1109 -12.2747,15.4352 -17.461,24 z"
         id="path6413-1" />
      <path
         style="opacity:1;fill:#d40000;fill-opacity:1"
         id="path41-87-9-4-8"
         d="m 470.15911,16.3928 v -2.8217 h 2.6923 l 5.7354,-30.1783 h 3.2644 l 6.3179,30.1783 h 2.1741 v 2.8217 h -7.4082 v -2.8217 h 1.9993 l -0.7984,-4.6247 h -7.4737 l -0.5773,4.6247 h 1.9992 v 2.8217 z m 13.3391,-10.7407 -3.249,-16.1524 -3.0432,16.1524 z m 0,0" />
      <path
         style="opacity:1;fill:#d40000;fill-opacity:1"
         id="path41-8-5-6-1"
         d="m 658.95364,234.5284 v 2.8217 h 2.6923 l 5.7354,30.1783 h 3.2644 l 6.3179,-30.1783 h 2.1741 v -2.8217 h -7.4082 v 2.8217 h 1.9993 l -0.7984,4.6246 h -7.4737 l -0.5773,-4.6246 h 1.9992 v -2.8217 z m 13.3391,10.7407 -3.249,16.1524 -3.0432,-16.1524 z m 0,0" />
    </g>
  </g>
</svg>
